<svg width="280" height="199" viewBox="0 0 280 199" fill="none" xmlns="http://www.w3.org/2000/svg">
<path d="M39.6067 177.796C92.4188 205.384 178.038 205.384 230.843 177.796C283.649 150.208 283.656 105.477 230.843 77.8888C178.031 50.3009 92.4125 50.3009 39.6067 77.8888C-13.1991 105.477 -13.2054 150.208 39.6067 177.796Z" fill="#FAFAFA"/>
<path d="M166.364 140.445C153.941 147.611 153.941 159.24 166.364 166.413C178.787 173.585 198.918 173.585 211.342 166.413C223.765 159.24 223.758 147.611 211.342 140.445C198.925 133.278 178.781 133.272 166.364 140.445Z" fill="#EBEBEB"/>
<path d="M35.5662 37.6436L68.8456 27.2942L43.2431 45.0306L35.5662 37.6436Z" fill="url(#paint0_linear_282_1526)"/>
<path d="M68.8454 27.2949L33.0007 33.207L25.3237 25.8137L68.8454 27.2949Z" fill="url(#paint1_linear_282_1526)"/>
<path d="M33.0005 33.2063V42.0745L35.5658 37.6436L68.8452 27.2942L33.0005 33.2063Z" fill="#A23B34"/>
<path d="M33.0005 42.0747L38.1248 40.1082L35.5658 37.6438L33.0005 42.0747Z" fill="url(#paint2_linear_282_1526)"/>
<path d="M35.5662 37.6438L38.1251 40.1082L37.3058 40.4171L35.5662 37.6438Z" fill="black"/>
<path d="M27.4869 40.7386C27.3809 40.7406 27.2774 40.7069 27.1929 40.643C27.1083 40.579 27.0478 40.4885 27.0209 40.386C26.9939 40.2834 27.0023 40.1749 27.0445 40.0776C27.0867 39.9804 27.1604 39.9002 27.2537 39.8499C27.821 39.5348 28.3945 39.2196 28.9618 38.9738C29.0181 38.9434 29.0799 38.9247 29.1436 38.9188C29.2073 38.913 29.2715 38.9201 29.3323 38.9398C29.3932 38.9595 29.4494 38.9914 29.4976 39.0334C29.5458 39.0755 29.5849 39.1269 29.6126 39.1845C29.6404 39.2421 29.6562 39.3048 29.659 39.3687C29.6618 39.4326 29.6516 39.4964 29.6291 39.5562C29.6066 39.6161 29.5721 39.6707 29.5278 39.7169C29.4835 39.763 29.4304 39.7997 29.3715 39.8247C28.8231 40.0894 28.2622 40.3731 27.7138 40.6819C27.6437 40.7183 27.566 40.7378 27.4869 40.7386Z" fill="#E0E0E0"/>
<path d="M21.6698 91.6415C21.5732 91.6425 21.4786 91.6139 21.3987 91.5596C20.3737 90.837 19.4025 90.0407 18.4931 89.1771C18.4354 89.1396 18.3867 89.0901 18.3501 89.0319C18.3136 88.9737 18.2902 88.9083 18.2815 88.8401C18.2728 88.7719 18.2791 88.7027 18.3 88.6372C18.3208 88.5718 18.3557 88.5116 18.4021 88.461C18.4486 88.4103 18.5055 88.3704 18.5689 88.3441C18.6324 88.3177 18.7008 88.3054 18.7695 88.3082C18.8381 88.311 18.9054 88.3287 18.9665 88.3601C19.0276 88.3915 19.0811 88.4358 19.1234 88.49C20.0006 89.3228 20.9381 90.0896 21.9282 90.7843C22.0098 90.8427 22.0707 90.9255 22.1021 91.0208C22.1335 91.116 22.1338 91.2188 22.1029 91.3143C22.072 91.4097 22.0116 91.4929 21.9303 91.5517C21.849 91.6105 21.7512 91.642 21.6508 91.6415H21.6698ZM16.7283 87.053C16.6585 87.0538 16.5894 87.0389 16.5261 87.0094C16.4629 86.98 16.407 86.9367 16.3627 86.8828C15.5685 85.9135 14.8459 84.8876 14.2008 83.8133C14.1356 83.7055 14.1159 83.5762 14.1461 83.4538C14.1762 83.3315 14.2537 83.2261 14.3615 83.1609C14.4693 83.0957 14.5986 83.076 14.721 83.1062C14.8433 83.1363 14.9487 83.2138 15.0139 83.3217C15.6353 84.3577 16.3304 85.3477 17.0938 86.284C17.1726 86.3804 17.2101 86.504 17.1983 86.6279C17.1865 86.7518 17.1263 86.866 17.0308 86.9458C16.9464 87.0172 16.8388 87.0553 16.7283 87.053ZM13.1797 81.3173C13.0882 81.3182 12.9983 81.2924 12.9211 81.2432C12.8439 81.194 12.7827 81.1234 12.7448 81.04C12.2298 79.899 11.7877 78.7263 11.4212 77.5293C11.3943 77.4128 11.4125 77.2905 11.4722 77.1869C11.5319 77.0834 11.6286 77.0062 11.7428 76.9711C11.857 76.9359 11.9803 76.9454 12.0879 76.9975C12.1955 77.0496 12.2793 77.1405 12.3225 77.2519C12.671 78.4097 13.092 79.5444 13.5831 80.6492C13.6095 80.7059 13.6244 80.7672 13.627 80.8296C13.6296 80.8921 13.6197 80.9544 13.598 81.013C13.5763 81.0716 13.5432 81.1254 13.5007 81.1711C13.4581 81.2169 13.4068 81.2537 13.3499 81.2795C13.2963 81.3033 13.2384 81.3162 13.1797 81.3173ZM11.1313 74.8821C11.022 74.8811 10.9164 74.8422 10.8325 74.7721C10.7486 74.702 10.6916 74.605 10.6712 74.4976C10.4306 73.2729 10.2601 72.0355 10.1606 70.7915C10.1506 70.6661 10.1908 70.5419 10.2723 70.4461C10.3539 70.3504 10.4702 70.291 10.5955 70.2809C10.7209 70.2709 10.8451 70.3111 10.9409 70.3926C11.0366 70.4742 11.096 70.5905 11.1061 70.7158C11.1988 71.9241 11.3629 73.1259 11.5977 74.3148C11.6105 74.3757 11.611 74.4385 11.5991 74.4996C11.5873 74.5607 11.5633 74.6188 11.5287 74.6705C11.494 74.7222 11.4494 74.7664 11.3974 74.8006C11.3453 74.8348 11.287 74.8582 11.2258 74.8694L11.1313 74.8821ZM10.5325 68.1505C10.4702 68.1506 10.4085 68.1381 10.3511 68.1139C10.2936 68.0897 10.2416 68.0542 10.1982 68.0095C10.1547 67.9649 10.1206 67.9119 10.0979 67.8539C10.0752 67.7958 10.0644 67.7338 10.0661 67.6715C10.0808 66.424 10.165 65.1783 10.3182 63.9402C10.3189 63.8737 10.3337 63.8082 10.3614 63.7478C10.3892 63.6874 10.4294 63.6336 10.4794 63.5898C10.5294 63.546 10.588 63.5132 10.6516 63.4936C10.7151 63.474 10.782 63.468 10.848 63.4761C10.9139 63.4841 10.9775 63.5059 11.0345 63.5402C11.0914 63.5744 11.1405 63.6203 11.1786 63.6748C11.2166 63.7293 11.2427 63.7912 11.2552 63.8565C11.2677 63.9218 11.2663 63.989 11.251 64.0536C11.1053 65.2586 11.0254 66.4705 11.0115 67.6841C11.0107 67.7462 10.9977 67.8075 10.9731 67.8646C10.9486 67.9216 10.9131 67.9732 10.8686 68.0166C10.8241 68.0599 10.7716 68.094 10.7139 68.117C10.6562 68.14 10.5946 68.1514 10.5325 68.1505ZM11.3015 61.4379C11.266 61.4441 11.2298 61.4441 11.1943 61.4379C11.0725 61.4108 10.9664 61.3366 10.8991 61.2315C10.8318 61.1264 10.8088 60.999 10.835 60.877C11.1112 59.6561 11.4649 58.454 11.8939 57.278C11.9148 57.2167 11.9481 57.1602 11.9917 57.1123C12.0353 57.0643 12.0883 57.0259 12.1475 56.9993C12.2066 56.9727 12.2705 56.9585 12.3353 56.9577C12.4001 56.9568 12.4644 56.9693 12.5242 56.9944C12.585 57.016 12.6409 57.0498 12.6883 57.0935C12.7358 57.1373 12.7739 57.1902 12.8004 57.2491C12.8269 57.308 12.8412 57.3716 12.8425 57.4361C12.8438 57.5007 12.832 57.5648 12.8079 57.6247C12.3943 58.7617 12.0532 59.9237 11.7868 61.1039C11.7557 61.2063 11.6907 61.2951 11.6025 61.3558C11.5144 61.4165 11.4082 61.4454 11.3015 61.4379ZM13.5453 55.072C13.4726 55.0749 13.4006 55.0574 13.3373 55.0216C13.2809 54.9953 13.2303 54.958 13.1886 54.9118C13.1468 54.8657 13.1147 54.8117 13.0942 54.7529C13.0736 54.6942 13.065 54.6319 13.0689 54.5698C13.0727 54.5077 13.089 54.447 13.1167 54.3913C13.6668 53.268 14.2857 52.1798 14.9698 51.1327C15.0386 51.035 15.1419 50.9671 15.2589 50.9426C15.3758 50.918 15.4977 50.9386 15.6 51.0003C15.7 51.0672 15.7702 51.1702 15.796 51.2876C15.8218 51.4051 15.8013 51.5279 15.7387 51.6306C15.0738 52.642 14.4738 53.6946 13.9424 54.7821C13.9098 54.8626 13.8553 54.9324 13.7851 54.9836C13.715 55.0348 13.6319 55.0654 13.5453 55.072ZM17.1695 49.3994C17.064 49.4005 16.9615 49.3648 16.8795 49.2985C16.8304 49.2599 16.7894 49.2118 16.759 49.1572C16.7285 49.1025 16.7093 49.0424 16.7022 48.9803C16.6952 48.9181 16.7005 48.8552 16.718 48.7952C16.7355 48.7351 16.7647 48.6791 16.8039 48.6304C17.5915 47.6574 18.4333 46.7294 19.3251 45.8508C19.4137 45.7623 19.5339 45.7126 19.6591 45.7126C19.7844 45.7126 19.9045 45.7623 19.9932 45.8508C20.0817 45.9395 20.1314 46.0596 20.1314 46.1849C20.1314 46.3102 20.0817 46.4303 19.9932 46.519C19.1342 47.3759 18.3221 48.2785 17.5603 49.2229C17.5114 49.2768 17.4507 49.3186 17.3828 49.3449C17.315 49.3712 17.2419 49.3812 17.1695 49.3742V49.3994ZM21.9093 44.5587C21.8405 44.5586 21.7727 44.5433 21.7106 44.5139C21.6485 44.4844 21.5936 44.4416 21.55 44.3886C21.4702 44.2919 21.4314 44.1678 21.442 44.0429C21.4526 43.918 21.5117 43.8023 21.6067 43.7205C22.5662 42.9225 23.5655 42.1737 24.6006 41.4766C24.7022 41.4143 24.8236 41.3927 24.9405 41.416C25.0574 41.4394 25.1611 41.5061 25.2309 41.6027C25.3013 41.7074 25.3275 41.8356 25.3039 41.9595C25.2803 42.0834 25.2088 42.193 25.1048 42.2645C24.0949 42.9426 23.1209 43.6726 22.1866 44.4516C22.1074 44.5151 22.0105 44.5525 21.9093 44.5587Z" fill="#E0E0E0"/>
<path d="M26.0056 94.1056C25.938 94.1061 25.8711 94.091 25.8103 94.0615C25.2241 93.7968 24.6442 93.5131 24.0896 93.2106C24.0353 93.1821 23.9872 93.1431 23.9481 93.096C23.9089 93.0489 23.8794 92.9945 23.8612 92.936C23.8431 92.8774 23.8367 92.8159 23.8423 92.7549C23.848 92.6938 23.8656 92.6345 23.8942 92.5803C23.953 92.472 24.0518 92.391 24.1696 92.3545C24.2873 92.318 24.4147 92.3289 24.5245 92.3849C25.0665 92.6749 25.6275 92.9522 26.1947 93.2106C26.292 93.2559 26.371 93.3329 26.4187 93.429C26.4665 93.525 26.4801 93.6345 26.4573 93.7394C26.4346 93.8442 26.3769 93.9382 26.2936 94.0059C26.2104 94.0736 26.1066 94.111 25.9993 94.1119L26.0056 94.1056Z" fill="#E0E0E0"/>
<path d="M241.596 71.232L268.258 54.1637L280 57.9328L241.596 71.232Z" fill="url(#paint3_linear_282_1526)"/>
<path d="M241.596 71.2324L264.64 52.0211L259.515 46.109L241.596 71.2324Z" fill="url(#paint4_linear_282_1526)"/>
<path d="M264.64 52.0209V56.477L241.596 71.2322L264.64 52.0209Z" fill="#A23B34"/>
<path d="M269.839 50.1615C269.725 50.1619 269.614 50.1191 269.53 50.0417C269.437 49.9582 269.38 49.8415 269.372 49.7167C269.364 49.5918 269.405 49.4687 269.486 49.3736C270.307 48.458 271.035 47.4637 271.66 46.4049C271.724 46.2963 271.828 46.2173 271.95 46.1854C272.072 46.1535 272.201 46.1712 272.31 46.2348C272.418 46.2983 272.497 46.4024 272.529 46.5241C272.561 46.6459 272.543 46.7753 272.48 46.884C271.82 47.9938 271.056 49.0385 270.198 50.0039C270.153 50.0544 270.098 50.0945 270.036 50.1217C269.974 50.1489 269.907 50.1625 269.839 50.1615ZM273.444 44.2872C273.388 44.2961 273.33 44.2961 273.274 44.2872C273.214 44.2644 273.16 44.2297 273.114 44.1852C273.068 44.1408 273.032 44.0875 273.007 44.0286C272.982 43.9697 272.97 43.9064 272.97 43.8425C272.97 43.7786 272.984 43.7155 273.009 43.6569C273.455 42.5088 273.788 41.3205 274.005 40.1083C274.028 39.9846 274.098 39.875 274.202 39.8034C274.305 39.7319 274.433 39.7044 274.557 39.727C274.68 39.7496 274.79 39.8204 274.861 39.9238C274.933 40.0272 274.96 40.1548 274.938 40.2785C274.706 41.5486 274.353 42.7938 273.885 43.9972C273.85 44.0845 273.788 44.1589 273.71 44.2106C273.631 44.2624 273.538 44.2891 273.444 44.2872ZM274.793 37.5241C274.731 37.5233 274.67 37.5102 274.613 37.4856C274.557 37.461 274.506 37.4254 274.463 37.3809C274.42 37.3363 274.386 37.2837 274.364 37.226C274.342 37.1684 274.331 37.1069 274.333 37.0451C274.333 36.8812 274.333 36.7174 274.333 36.5535C274.33 35.4834 274.246 34.4151 274.081 33.3579C274.063 33.2335 274.094 33.107 274.168 33.0056C274.243 32.9042 274.354 32.836 274.478 32.8159C274.602 32.7993 274.728 32.8314 274.829 32.9054C274.93 32.9794 274.998 33.0896 275.02 33.2129C275.19 34.3183 275.277 35.435 275.278 36.5535C275.278 36.7237 275.278 36.8938 275.278 37.064C275.273 37.1889 275.22 37.3068 275.129 37.3928C275.039 37.4787 274.918 37.5259 274.793 37.5241ZM273.841 30.6918C273.74 30.6914 273.641 30.658 273.56 30.5966C273.48 30.5352 273.421 30.4491 273.394 30.3514C273.032 29.1688 272.579 28.0161 272.039 26.9037C272.011 26.848 271.995 26.7873 271.991 26.7252C271.987 26.6631 271.995 26.6008 272.016 26.5421C272.037 26.4834 272.069 26.4293 272.11 26.3832C272.152 26.3371 272.203 26.2997 272.259 26.2734C272.372 26.2193 272.502 26.2121 272.62 26.2534C272.738 26.2948 272.835 26.3813 272.889 26.494C273.453 27.65 273.923 28.8493 274.295 30.0804C274.313 30.1396 274.32 30.2018 274.314 30.2635C274.308 30.3251 274.29 30.385 274.26 30.4396C274.231 30.4942 274.191 30.5423 274.143 30.5813C274.095 30.6203 274.039 30.6493 273.98 30.6666C273.936 30.6841 273.889 30.6926 273.841 30.6918ZM270.917 24.433C270.837 24.4337 270.759 24.4138 270.689 24.3751C270.619 24.3364 270.561 24.2804 270.52 24.2124C269.844 23.1751 269.101 22.1834 268.295 21.2437C268.254 21.1966 268.223 21.1419 268.203 21.0828C268.184 21.0237 268.176 20.9613 268.181 20.8992C268.186 20.8371 268.203 20.7766 268.231 20.721C268.259 20.6655 268.298 20.6161 268.345 20.5756C268.392 20.5351 268.446 20.5043 268.504 20.4848C268.563 20.4654 268.625 20.4579 268.687 20.4625C268.748 20.4672 268.808 20.4841 268.863 20.5122C268.918 20.5402 268.967 20.5789 269.007 20.626C269.844 21.5987 270.614 22.6263 271.314 23.7019C271.372 23.8057 271.39 23.9272 271.364 24.0434C271.339 24.1596 271.271 24.2624 271.175 24.3321C271.1 24.3876 271.01 24.4204 270.917 24.4267V24.433ZM266.505 19.1322C266.384 19.1319 266.269 19.0843 266.183 18.9999C265.275 18.1504 264.322 17.3509 263.328 16.6048C263.278 16.5675 263.236 16.5209 263.205 16.4675C263.173 16.414 263.152 16.3549 263.144 16.2935C263.135 16.232 263.138 16.1694 263.154 16.1093C263.169 16.0491 263.196 15.9926 263.233 15.943C263.271 15.8933 263.317 15.8515 263.371 15.8198C263.424 15.7882 263.483 15.7674 263.545 15.7586C263.606 15.7499 263.669 15.7533 263.729 15.7687C263.789 15.7841 263.846 15.8112 263.895 15.8484C264.92 16.6142 265.9 17.437 266.832 18.3129C266.902 18.3778 266.951 18.4625 266.972 18.5558C266.993 18.649 266.985 18.7464 266.95 18.8351C266.914 18.9239 266.853 18.9998 266.773 19.0528C266.694 19.1058 266.6 19.1335 266.505 19.1322ZM260.977 14.9345C260.887 14.9337 260.8 14.9074 260.725 14.8589C260.296 14.5941 259.849 14.3294 259.395 14.071C258.765 13.718 258.134 13.3651 257.466 13.031C257.405 13.0066 257.35 12.9697 257.304 12.9227C257.258 12.8757 257.223 12.8196 257.199 12.7581C257.176 12.6966 257.166 12.6309 257.17 12.5653C257.174 12.4997 257.191 12.4356 257.221 12.3771C257.251 12.3186 257.293 12.2669 257.344 12.2255C257.395 12.184 257.454 12.1537 257.517 12.1363C257.581 12.119 257.647 12.115 257.712 12.1247C257.777 12.1345 257.839 12.1576 257.895 12.1927C258.557 12.5331 259.218 12.8861 259.861 13.2516C260.328 13.5101 260.782 13.7811 261.223 14.0584C261.325 14.1234 261.398 14.225 261.427 14.3422C261.456 14.4594 261.44 14.5834 261.38 14.6887C261.34 14.7606 261.281 14.821 261.211 14.864C261.14 14.907 261.06 14.9313 260.977 14.9345ZM204.471 14.6131C204.388 14.6122 204.307 14.5896 204.235 14.5476C204.163 14.5056 204.103 14.4456 204.062 14.3735C204.002 14.2671 203.986 14.1415 204.018 14.0237C204.05 13.9058 204.127 13.8052 204.232 13.7433C205.329 13.113 206.457 12.4827 207.598 11.9532C207.71 11.8986 207.839 11.8905 207.957 11.9306C208.075 11.9708 208.172 12.0559 208.228 12.1675C208.28 12.2806 208.287 12.4098 208.246 12.5275C208.204 12.6451 208.119 12.7421 208.007 12.7978C206.885 13.3462 205.776 13.9323 204.698 14.5563C204.628 14.5907 204.55 14.6059 204.471 14.6005V14.6131ZM254.832 11.7326C254.766 11.733 254.701 11.7179 254.643 11.6885C253.508 11.1906 252.336 10.7242 251.163 10.3082C251.045 10.2655 250.948 10.1775 250.894 10.0635C250.84 9.94939 250.834 9.81863 250.877 9.69994C250.919 9.58126 251.007 9.48436 251.121 9.43058C251.235 9.3768 251.366 9.37053 251.485 9.41316C252.676 9.84176 253.867 10.3145 255.027 10.825C255.128 10.868 255.211 10.9449 255.262 11.0424C255.312 11.14 255.327 11.2521 255.304 11.3595C255.281 11.4669 255.221 11.5629 255.135 11.631C255.049 11.6991 254.941 11.735 254.832 11.7326ZM210.68 11.5372C210.587 11.5379 210.495 11.5106 210.418 11.4589C210.34 11.4072 210.28 11.3335 210.245 11.2473C210.219 11.1895 210.205 11.1271 210.204 11.0638C210.202 11.0005 210.214 10.9376 210.237 10.8788C210.261 10.82 210.296 10.7665 210.341 10.7216C210.385 10.6766 210.438 10.641 210.497 10.617C211.663 10.1254 212.861 9.67158 214.058 9.26189C214.118 9.23695 214.183 9.22473 214.248 9.22598C214.313 9.22723 214.377 9.24193 214.437 9.26915C214.496 9.29638 214.549 9.33554 214.592 9.38418C214.635 9.43282 214.668 9.4899 214.688 9.55182C214.711 9.61258 214.722 9.67733 214.719 9.74222C214.717 9.80711 214.701 9.87084 214.674 9.92961C214.646 9.98839 214.607 10.041 214.558 10.0844C214.51 10.1278 214.454 10.161 214.392 10.1821C213.213 10.5855 212.029 11.033 210.888 11.512C210.82 11.5309 210.749 11.5351 210.68 11.5246V11.5372ZM248.327 9.35643C248.283 9.36256 248.239 9.36256 248.195 9.35643C247.003 9.00977 245.781 8.72614 244.564 8.42991C244.503 8.41666 244.446 8.39156 244.395 8.35605C244.343 8.32053 244.3 8.27529 244.266 8.22291C244.232 8.17053 244.209 8.11203 244.198 8.05076C244.187 7.98948 244.189 7.92663 244.202 7.8658C244.215 7.80496 244.24 7.74733 244.276 7.69619C244.311 7.64505 244.356 7.60141 244.409 7.56776C244.461 7.5341 244.52 7.5111 244.581 7.50005C244.642 7.489 244.705 7.49013 244.766 7.50338C246.026 7.7744 247.249 8.09585 248.459 8.44881C248.569 8.48067 248.663 8.55087 248.724 8.64652C248.786 8.74216 248.811 8.85683 248.795 8.96948C248.779 9.08212 248.723 9.18518 248.637 9.25974C248.551 9.3343 248.441 9.37534 248.327 9.37534V9.35643ZM217.222 9.26189C217.119 9.2615 217.019 9.22741 216.937 9.16483C216.855 9.10225 216.796 9.01459 216.768 8.91523C216.751 8.85605 216.746 8.79403 216.752 8.73275C216.759 8.67147 216.778 8.61216 216.808 8.55824C216.838 8.50431 216.878 8.45685 216.927 8.4186C216.975 8.38034 217.03 8.35205 217.09 8.33536C218.306 7.995 219.554 7.70507 220.796 7.42774C220.859 7.40766 220.925 7.40099 220.991 7.40815C221.057 7.41531 221.12 7.43616 221.177 7.46934C221.234 7.50252 221.284 7.5473 221.322 7.60079C221.361 7.65428 221.388 7.71529 221.402 7.7799C221.416 7.84451 221.416 7.91127 221.402 7.97589C221.388 8.04051 221.361 8.10154 221.323 8.15506C221.284 8.20858 221.234 8.2534 221.177 8.28663C221.12 8.31985 221.057 8.34075 220.991 8.34797C219.769 8.60639 218.546 8.90893 217.348 9.24298L217.222 9.26189ZM241.57 7.83743H241.476C240.247 7.64204 238.992 7.48447 237.757 7.37102C237.692 7.3703 237.628 7.35615 237.568 7.32945C237.509 7.30274 237.456 7.26406 237.412 7.21582C237.368 7.16758 237.335 7.11084 237.314 7.04913C237.293 6.98743 237.286 6.9221 237.291 6.85724C237.297 6.79238 237.316 6.72939 237.347 6.67221C237.378 6.61504 237.421 6.56491 237.472 6.52498C237.524 6.48504 237.583 6.45616 237.646 6.44014C237.709 6.42412 237.775 6.42131 237.839 6.43188C239.1 6.54534 240.36 6.70291 241.621 6.9046C241.744 6.92624 241.853 6.995 241.926 7.09624C241.999 7.19747 242.03 7.3232 242.011 7.44665C241.989 7.54865 241.934 7.64045 241.854 7.70771C241.774 7.77498 241.675 7.81395 241.57 7.81852V7.83743ZM223.991 7.79331C223.879 7.79326 223.771 7.75329 223.685 7.68054C223.6 7.60779 223.543 7.50701 223.525 7.39623C223.507 7.27185 223.538 7.14531 223.613 7.0439C223.687 6.9425 223.798 6.87436 223.922 6.85418C225.183 6.66509 226.443 6.50752 227.704 6.40037C227.766 6.39499 227.828 6.40189 227.888 6.42068C227.947 6.43946 228.002 6.46976 228.05 6.50985C228.098 6.54994 228.137 6.59904 228.166 6.65434C228.195 6.70963 228.212 6.77004 228.218 6.83212C228.223 6.89419 228.216 6.95672 228.197 7.01614C228.178 7.07555 228.148 7.13068 228.108 7.17838C228.068 7.22608 228.019 7.26542 227.964 7.29414C227.908 7.32287 227.848 7.34042 227.786 7.3458C226.525 7.45295 225.296 7.59792 224.067 7.79331H223.991ZM234.675 7.16302C233.414 7.1189 232.154 7.1126 230.925 7.16302C230.863 7.16643 230.801 7.15725 230.742 7.13606C230.684 7.11486 230.631 7.08208 230.585 7.03968C230.54 6.99728 230.504 6.94615 230.478 6.88935C230.453 6.83256 230.44 6.77128 230.439 6.70921C230.437 6.64691 230.447 6.58474 230.469 6.52637C230.491 6.468 230.524 6.41461 230.567 6.36937C230.61 6.32412 230.661 6.28794 230.718 6.26295C230.776 6.23796 230.837 6.22468 230.899 6.22389C232.16 6.17977 233.421 6.18607 234.681 6.22389C234.743 6.22552 234.804 6.23937 234.861 6.26465C234.918 6.28993 234.969 6.32614 235.012 6.37121C235.055 6.41628 235.088 6.46933 235.11 6.52732C235.132 6.58532 235.143 6.64713 235.141 6.70921C235.132 6.82744 235.079 6.93801 234.993 7.01952C234.907 7.10102 234.793 7.14766 234.675 7.15042V7.16302Z" fill="#E0E0E0"/>
<path d="M232.3 80.4473V79.4388H232.054C231.68 78.7558 231.112 78.1987 230.421 77.8379C229.013 77.1231 227.456 76.7506 225.877 76.7506C224.298 76.7506 222.741 77.1231 221.332 77.8379C220.642 78.1987 220.074 78.7558 219.7 79.4388H219.454V80.4158C219.454 81.3801 220.085 82.3508 221.345 83.0882C222.754 83.7996 224.311 84.1702 225.889 84.1702C227.468 84.1702 229.025 83.7996 230.434 83.0882C231.682 82.376 232.306 81.4053 232.3 80.4473Z" fill="#858585"/>
<path d="M225.877 83.1516C229.424 83.1516 232.3 81.4895 232.3 79.4392C232.3 77.3889 229.424 75.7268 225.877 75.7268C222.33 75.7268 219.454 77.3889 219.454 79.4392C219.454 81.4895 222.33 83.1516 225.877 83.1516Z" fill="#4E4E4E"/>
<path d="M224.225 48.5297V79.0042C224.239 79.1489 224.29 79.2874 224.374 79.4058C224.459 79.5242 224.572 79.6183 224.704 79.6787C225.067 79.862 225.467 79.9575 225.874 79.9575C226.28 79.9575 226.68 79.862 227.043 79.6787C227.177 79.6197 227.292 79.5261 227.377 79.4075C227.463 79.289 227.515 79.1497 227.528 79.0042V48.5297H224.225Z" fill="#858585"/>
<path d="M233.283 25.7189C231.676 24.7924 230.213 24.7168 229.117 25.3281L208.702 37.1272L218.944 57.6684L239.428 45.8189V36.8309C239.428 32.6521 236.674 27.6791 233.283 25.7189Z" fill="#4E4E4E"/>
<path d="M218.945 48.6746V57.6689L206.66 50.5718V41.5838C206.66 37.405 209.408 35.6087 212.799 37.5689C214.974 38.8295 216.884 41.3128 217.974 44.0357C218.584 45.5079 218.913 47.0813 218.945 48.6746Z" fill="#858585"/>
<path d="M218.945 48.6743V57.6686L206.66 50.5715L217.974 44.0354C218.584 45.5076 218.913 47.081 218.945 48.6743Z" fill="#181818"/>
<path d="M216.895 51.7568C215.767 48.4919 212.098 44.2564 208.701 42.3025C205.304 40.3486 203.476 41.4012 204.604 44.6661L206.653 50.5782L218.943 57.6753C218.943 57.6753 218.03 55.0217 216.895 51.7568Z" fill="#4E4E4E"/>
<path d="M225.348 49.0146L224.661 48.6175C224.514 48.5497 224.351 48.5222 224.189 48.5376C224.028 48.5531 223.873 48.6111 223.741 48.7057C223.361 48.9541 223.045 49.2884 222.819 49.6815C222.592 50.0745 222.461 50.5154 222.436 50.9685C222.419 51.1307 222.446 51.2947 222.513 51.4432C222.581 51.5917 222.687 51.7194 222.821 51.813L223.451 52.1786L223.571 51.9832C223.702 51.955 223.827 51.906 223.943 51.8383C224.322 51.5912 224.638 51.2581 224.865 50.8661C225.092 50.474 225.223 50.034 225.247 49.5818C225.247 49.4691 225.232 49.3568 225.203 49.2478L225.348 49.0146Z" fill="#4E4E4E"/>
<path d="M224.396 49.0905C224.016 49.3375 223.7 49.6706 223.473 50.0627C223.247 50.4547 223.116 50.8947 223.091 51.3469C223.091 52.1789 223.677 52.5129 224.396 52.0969C224.776 51.8503 225.092 51.5173 225.319 51.1251C225.545 50.733 225.676 50.2928 225.7 49.8405C225.719 49.0085 225.089 48.6745 224.396 49.0905Z" fill="#858585"/>
<path d="M224.395 50.9496C224.346 50.9496 224.297 50.9398 224.251 50.9208C224.205 50.9018 224.163 50.8739 224.128 50.8388C224.093 50.8037 224.065 50.762 224.046 50.7161C224.027 50.6702 224.017 50.6211 224.017 50.5714V37.5685C224.017 37.4682 224.057 37.372 224.128 37.3011C224.199 37.2302 224.295 37.1903 224.395 37.1903C224.496 37.1903 224.592 37.2302 224.663 37.3011C224.734 37.372 224.774 37.4682 224.774 37.5685V50.5714C224.774 50.6717 224.734 50.7679 224.663 50.8388C224.592 50.9097 224.496 50.9496 224.395 50.9496Z" fill="black"/>
<path d="M224.735 37.909V41.2999L228.372 37.5686L224.735 37.909Z" fill="#858585"/>
<path d="M30.8828 85.1429C30.9136 84.5745 31.0781 84.0214 31.3628 83.5286C31.6476 83.0358 32.0446 82.6171 32.5216 82.3065L116.294 33.938C116.801 33.683 117.361 33.5502 117.929 33.5502C118.497 33.5502 119.057 33.683 119.565 33.938L121.412 35.0095C121.89 35.3189 122.287 35.7373 122.572 36.2304C122.857 36.7234 123.021 37.2771 123.05 37.8458V102.06C123.018 102.628 122.853 103.18 122.568 103.673C122.284 104.166 121.888 104.585 121.412 104.896L37.6395 153.258C37.1318 153.516 36.5703 153.651 36.0008 153.651C35.4313 153.651 34.8698 153.516 34.362 153.258L32.5216 152.193C32.0453 151.882 31.6488 151.463 31.3641 150.97C31.0795 150.478 30.9146 149.925 30.8828 149.357V85.1429Z" fill="url(#paint5_linear_282_1526)"/>
<path opacity="0.3" d="M30.8828 85.1429C30.9136 84.5745 31.0781 84.0214 31.3628 83.5286C31.6476 83.0358 32.0446 82.6171 32.5216 82.3065L116.294 33.938C116.801 33.683 117.361 33.5502 117.929 33.5502C118.497 33.5502 119.057 33.683 119.565 33.938L121.412 35.0095C121.89 35.3189 122.287 35.7373 122.572 36.2304C122.857 36.7234 123.021 37.2771 123.05 37.8458V102.06C123.018 102.628 122.853 103.18 122.568 103.673C122.284 104.166 121.888 104.585 121.412 104.896L37.6395 153.258C37.1318 153.516 36.5703 153.651 36.0008 153.651C35.4313 153.651 34.8698 153.516 34.362 153.258L32.5216 152.193C32.0453 151.882 31.6488 151.463 31.3641 150.97C31.0795 150.478 30.9146 149.925 30.8828 149.357V85.1429Z" fill="black"/>
<path d="M38.5598 87.6898L31.3618 83.5299C31.0676 84.0183 30.9027 84.5736 30.8828 85.1435V149.358C30.9146 149.926 31.0795 150.478 31.3641 150.971C31.6488 151.464 32.0453 151.883 32.5216 152.194L34.362 153.259C34.8698 153.517 35.4313 153.651 36.0008 153.651C36.5703 153.651 37.1318 153.517 37.6395 153.259L38.5598 152.73V87.6898Z" fill="url(#paint6_linear_282_1526)"/>
<path opacity="0.5" d="M38.5598 87.6898L31.3618 83.5299C31.0676 84.0183 30.9027 84.5736 30.8828 85.1435V149.358C30.9146 149.926 31.0795 150.478 31.3641 150.971C31.6488 151.464 32.0453 151.883 32.5216 152.194L34.362 153.259C34.8698 153.517 35.4313 153.651 36.0008 153.651C36.5703 153.651 37.1318 153.517 37.6395 153.259L38.5598 152.73V87.6898Z" fill="black"/>
<path d="M123.051 37.8455V102.06C123.03 102.647 122.853 103.219 122.54 103.717C122.298 104.137 121.972 104.502 121.582 104.789L121.519 104.827L121.412 104.896L37.64 153.258C37.4797 153.371 37.2934 153.442 37.0984 153.464C36.9034 153.486 36.706 153.459 36.5244 153.384C36.3499 153.274 36.2089 153.119 36.1167 152.934C36.0244 152.75 35.9845 152.544 36.0013 152.338V88.0987C35.987 87.8688 36.0288 87.6388 36.1229 87.4286C36.217 87.2183 36.3607 87.034 36.5416 86.8915C36.7226 86.749 36.9354 86.6525 37.1618 86.6102C37.3883 86.568 37.6216 86.5813 37.8417 86.649L73.0687 95.0256L77.6825 96.1223C78.227 96.2243 78.7891 96.1755 79.3079 95.981C79.8267 95.7866 80.2825 95.454 80.6259 95.0193L85.9708 87.5755L121.948 37.4863C122.553 36.6417 123.051 36.7992 123.051 37.8455Z" fill="url(#paint7_linear_282_1526)"/>
<path opacity="0.2" d="M123.051 37.8455V102.06C123.03 102.647 122.853 103.219 122.54 103.717C122.298 104.137 121.972 104.502 121.582 104.789L121.519 104.827L121.412 104.896L37.64 153.258C37.4797 153.371 37.2934 153.442 37.0984 153.464C36.9034 153.486 36.706 153.459 36.5244 153.384C36.3499 153.274 36.2089 153.119 36.1167 152.934C36.0244 152.75 35.9845 152.544 36.0013 152.338V88.0987C35.987 87.8688 36.0288 87.6388 36.1229 87.4286C36.217 87.2183 36.3607 87.034 36.5416 86.8915C36.7226 86.749 36.9354 86.6525 37.1618 86.6102C37.3883 86.568 37.6216 86.5813 37.8417 86.649L73.0687 95.0256L77.6825 96.1223C78.227 96.2243 78.7891 96.1755 79.3079 95.981C79.8267 95.7866 80.2825 95.454 80.6259 95.0193L85.9708 87.5755L121.948 37.4863C122.553 36.6417 123.051 36.7992 123.051 37.8455Z" fill="black"/>
<path d="M121.413 104.896L121.52 104.827L121.583 104.789C121.973 104.502 122.299 104.137 122.541 103.717C122.851 103.227 123.027 102.664 123.052 102.085L85.9719 87.5883L110.805 111.035L121.413 104.896Z" fill="url(#paint8_linear_282_1526)"/>
<path opacity="0.6" d="M121.413 104.896L121.52 104.827L121.583 104.789C121.973 104.502 122.299 104.137 122.541 103.717C122.851 103.227 123.027 102.664 123.052 102.085L85.9719 87.5883L110.805 111.035L121.413 104.896Z" fill="black"/>
<path d="M36.002 152.338C35.9779 152.548 36.013 152.76 36.1032 152.95C36.1935 153.141 36.3353 153.302 36.5126 153.416C36.6941 153.491 36.8915 153.518 37.0865 153.496C37.2815 153.474 37.4678 153.403 37.6282 153.29L66.4829 136.581L73.0695 94.9817L36.002 151.248V152.338Z" fill="url(#paint9_linear_282_1526)"/>
<path opacity="0.6" d="M36.002 152.338C35.9779 152.548 36.013 152.76 36.1032 152.95C36.1935 153.141 36.3353 153.302 36.5126 153.416C36.6941 153.491 36.8915 153.518 37.0865 153.496C37.2815 153.474 37.4678 153.403 37.6282 153.29L66.4829 136.581L73.0695 94.9817L36.002 151.248V152.338Z" fill="black"/>
<path d="M122.541 103.717C122.299 104.137 121.972 104.502 121.583 104.789L121.519 104.827L37.6403 153.258C37.48 153.372 37.2937 153.442 37.0986 153.464C36.9036 153.486 36.7062 153.459 36.5247 153.384L76.6427 89.3405C77.449 88.0577 78.6905 87.1083 80.1397 86.6661C81.5889 86.2239 83.1489 86.3186 84.534 86.9328L122.541 103.717Z" fill="url(#paint10_linear_282_1526)"/>
<path opacity="0.2" d="M122.541 103.717C122.299 104.137 121.972 104.502 121.583 104.789L121.519 104.827L37.6403 153.258C37.48 153.372 37.2937 153.442 37.0986 153.464C36.9036 153.486 36.7062 153.459 36.5247 153.384L76.6427 89.3405C77.449 88.0577 78.6905 87.1083 80.1397 86.6661C81.5889 86.2239 83.1489 86.3186 84.534 86.9328L122.541 103.717Z" fill="black"/>
<path d="M36.0015 86.2084L74.5312 103.226C75.9184 103.839 77.48 103.93 78.9294 103.485C80.3789 103.039 81.619 102.086 82.4224 100.8L122.881 36.0498L36.0015 86.2084Z" fill="url(#paint11_linear_282_1526)"/>
<path opacity="0.6" d="M36.0015 86.2084L74.5312 103.226C75.9184 103.839 77.48 103.93 78.9294 103.485C80.3789 103.039 81.619 102.086 82.4224 100.8L122.881 36.0498L36.0015 86.2084Z" fill="black"/>
<path d="M36.0015 86.2084L74.8022 100.705C76.1431 101.206 77.6144 101.235 78.9741 100.788C80.3339 100.342 81.5011 99.4453 82.2838 98.247L122.881 36.0498L36.0015 86.2084Z" fill="url(#paint12_linear_282_1526)"/>
<path opacity="0.2" d="M36.0015 86.2084L74.8022 100.705C76.1431 101.206 77.6144 101.235 78.9741 100.788C80.3339 100.342 81.5011 99.4453 82.2838 98.247L122.881 36.0498L36.0015 86.2084Z" fill="black"/>
<path d="M45.1904 93.0528C45.2197 92.4841 45.3835 91.9304 45.6684 91.4373C45.9533 90.9443 46.3511 90.5258 46.8292 90.2164L130.601 41.8479C131.109 41.5899 131.67 41.4554 132.24 41.4554C132.81 41.4554 133.371 41.5899 133.879 41.8479L135.725 42.9131C136.201 43.2243 136.597 43.6433 136.881 44.1361C137.164 44.6289 137.328 45.1816 137.358 45.7494V109.963C137.327 110.531 137.163 111.083 136.879 111.576C136.596 112.069 136.201 112.488 135.725 112.8L51.9472 161.162C51.4396 161.417 50.8795 161.55 50.3115 161.55C49.7436 161.55 49.1835 161.417 48.6759 161.162L46.8292 160.097C46.3532 159.785 45.957 159.366 45.6724 158.874C45.3878 158.381 45.2227 157.829 45.1904 157.261V93.0528Z" fill="black"/>
<path d="M45.1904 93.0528C45.2197 92.4841 45.3835 91.9304 45.6684 91.4373C45.9533 90.9443 46.3511 90.5258 46.8292 90.2164L130.601 41.8479C131.109 41.5899 131.67 41.4554 132.24 41.4554C132.81 41.4554 133.371 41.5899 133.879 41.8479L135.725 42.9131C136.201 43.2243 136.597 43.6433 136.881 44.1361C137.164 44.6289 137.328 45.1816 137.358 45.7494V109.963C137.327 110.531 137.163 111.083 136.879 111.576C136.596 112.069 136.201 112.488 135.725 112.8L51.9472 161.162C51.4396 161.417 50.8795 161.55 50.3115 161.55C49.7436 161.55 49.1835 161.417 48.6759 161.162L46.8292 160.097C46.3532 159.785 45.957 159.366 45.6724 158.874C45.3878 158.381 45.2227 157.829 45.1904 157.261V93.0528Z" fill="black"/>
<path d="M52.8737 95.6121L45.6694 91.4585C45.3744 91.9465 45.2095 92.5021 45.1904 93.072V157.267C45.2227 157.835 45.3878 158.388 45.6724 158.88C45.957 159.373 46.3532 159.792 46.8292 160.104L48.6759 161.169C49.1835 161.424 49.7436 161.556 50.3115 161.556C50.8795 161.556 51.4396 161.424 51.9472 161.169L52.8737 160.633V95.6121Z" fill="black"/>
<path d="M137.366 45.7493V109.963C137.344 110.551 137.168 111.123 136.855 111.621C136.613 112.04 136.287 112.405 135.897 112.693L135.834 112.73L135.727 112.8L51.9548 161.162C51.7945 161.275 51.6082 161.346 51.4132 161.368C51.2182 161.39 51.0207 161.363 50.8392 161.288C50.6619 161.174 50.5201 161.013 50.4299 160.822C50.3397 160.632 50.3046 160.42 50.3287 160.21V96.0024C50.3144 95.7725 50.3561 95.5426 50.4502 95.3323C50.5443 95.1221 50.688 94.9378 50.869 94.7953C51.0499 94.6527 51.2628 94.5562 51.4892 94.514C51.7156 94.4717 51.949 94.4851 52.1691 94.5528L87.3961 102.929L92.0098 104.026C92.5544 104.128 93.1165 104.079 93.6353 103.885C94.1541 103.69 94.6099 103.358 94.9533 102.923L100.292 95.4793L136.269 45.39C136.849 44.5581 137.366 44.703 137.366 45.7493Z" fill="#858585"/>
<path d="M135.727 112.8L135.834 112.731L135.897 112.693C136.287 112.406 136.613 112.041 136.855 111.622C137.161 111.132 137.335 110.572 137.359 109.995L100.286 95.4987L125.113 118.933L135.727 112.8Z" fill="black"/>
<path d="M50.3148 160.217C50.2908 160.426 50.3258 160.638 50.4161 160.829C50.5063 161.019 50.6481 161.181 50.8254 161.295C51.0069 161.369 51.2043 161.397 51.3994 161.375C51.5944 161.353 51.7807 161.282 51.941 161.169L80.7831 144.516L87.3697 102.917L50.3022 159.139L50.3148 160.217Z" fill="black"/>
<path d="M136.848 111.622C136.606 112.041 136.28 112.406 135.89 112.693L135.827 112.731L51.9539 161.163C51.7935 161.276 51.6072 161.347 51.4122 161.369C51.2172 161.391 51.0198 161.363 50.8383 161.289L90.95 97.2511C91.7544 95.9661 92.995 95.0141 94.4443 94.5695C95.8937 94.125 97.4547 94.2178 98.8412 94.8308L136.848 111.622Z" fill="#858585"/>
<path d="M50.3159 94.1185L88.8456 111.136C90.2321 111.747 91.7922 111.838 93.2403 111.392C94.6883 110.947 95.9274 109.994 96.7306 108.71L137.189 43.9283L50.3159 94.1185Z" fill="black"/>
<path d="M50.3159 94.1184L89.1104 108.615C90.452 109.117 91.9247 109.148 93.2859 108.701C94.647 108.254 95.8153 107.357 96.5982 106.157L137.189 43.9283L50.3159 94.1184Z" fill="#858585"/>
<path d="M106.637 144.025V79.8112C106.696 78.5929 107.077 77.4119 107.74 76.3887L147.695 20.7529C148.424 19.7364 149.439 18.9599 150.611 18.5222C151.782 18.0844 153.058 18.0053 154.275 18.2948L191.847 27.226C193.057 27.5482 194.225 28.0137 195.326 28.6126L197.173 29.6778C197.647 29.9902 198.042 30.4094 198.326 30.902C198.609 31.3945 198.773 31.9467 198.805 32.5141V96.7282C198.772 97.2954 198.608 97.8472 198.324 98.3396C198.041 98.832 197.647 99.2515 197.173 99.5645L113.394 147.927C112.887 148.183 112.327 148.317 111.759 148.317C111.19 148.317 110.63 148.183 110.123 147.927L108.276 146.862C107.8 146.55 107.403 146.131 107.119 145.639C106.834 145.146 106.669 144.593 106.637 144.025Z" fill="url(#paint13_linear_282_1526)"/>
<path opacity="0.3" d="M106.637 144.025V79.8112C106.696 78.5929 107.077 77.4119 107.74 76.3887L147.695 20.7529C148.424 19.7364 149.439 18.9599 150.611 18.5222C151.782 18.0844 153.058 18.0053 154.275 18.2948L191.847 27.226C193.057 27.5482 194.225 28.0137 195.326 28.6126L197.173 29.6778C197.647 29.9902 198.042 30.4094 198.326 30.902C198.609 31.3945 198.773 31.9467 198.805 32.5141V96.7282C198.772 97.2954 198.608 97.8472 198.324 98.3396C198.041 98.832 197.647 99.2515 197.173 99.5645L113.394 147.927C112.887 148.183 112.327 148.317 111.759 148.317C111.19 148.317 110.63 148.183 110.123 147.927L108.276 146.862C107.8 146.55 107.403 146.131 107.119 145.639C106.834 145.146 106.669 144.593 106.637 144.025Z" fill="url(#paint14_linear_282_1526)"/>
<path d="M114.314 48.775V130.713C114.314 131.753 115.052 132.181 115.953 131.658L194.607 86.2773C195.085 85.9672 195.482 85.5486 195.767 85.0557C196.052 84.5628 196.216 84.0095 196.246 83.441V1.50313C196.246 0.456848 195.515 0.0345524 194.607 0.557694L115.953 45.9387C115.476 46.2492 115.079 46.6679 114.794 47.1608C114.51 47.6536 114.345 48.2066 114.314 48.775Z" fill="#FAFAFA"/>
<path d="M115.223 132.207C115.02 132.208 114.82 132.156 114.643 132.056C114.428 131.912 114.255 131.712 114.144 131.478C114.033 131.244 113.988 130.984 114.013 130.726V48.7877C114.043 48.1632 114.222 47.5549 114.534 47.0133C114.847 46.4717 115.284 46.0126 115.809 45.6741L194.464 0.293113C194.669 0.125882 194.92 0.0250828 195.184 0.00410262C195.448 -0.0168775 195.712 0.0429549 195.941 0.175654C196.171 0.308354 196.354 0.507636 196.467 0.747024C196.58 0.986412 196.618 1.25457 196.575 1.51588V83.4538C196.546 84.0776 196.367 84.6852 196.055 85.2259C195.742 85.7665 195.305 86.2244 194.779 86.5611L116.125 131.942C115.853 132.109 115.542 132.2 115.223 132.207ZM195.34 0.614563C195.136 0.626206 194.939 0.68908 194.766 0.797348L116.112 46.2098C115.684 46.494 115.327 46.8735 115.07 47.3186C114.813 47.7637 114.663 48.2622 114.631 48.7751V130.713C114.593 130.861 114.605 131.017 114.664 131.158C114.723 131.298 114.826 131.416 114.958 131.492C115.09 131.568 115.244 131.599 115.395 131.581C115.547 131.562 115.688 131.494 115.797 131.387L194.451 86.0064C194.88 85.7226 195.236 85.3432 195.493 84.898C195.75 84.4529 195.901 83.9542 195.932 83.4412V1.50328C195.95 1.35546 195.93 1.20555 195.874 1.0677C195.817 0.929844 195.727 0.808603 195.611 0.715412C195.531 0.657873 195.437 0.623015 195.34 0.614563Z" fill="#E0E0E0"/>
<path d="M112.619 81.3735L106.947 78.0959C106.763 78.6497 106.661 79.2272 106.644 79.8103V144.024C106.676 144.593 106.841 145.145 107.126 145.638C107.41 146.131 107.807 146.549 108.283 146.861L110.123 147.926C110.63 148.184 111.191 148.318 111.759 148.318C112.328 148.318 112.888 148.184 113.395 147.926L114.183 147.478L112.619 81.3735Z" fill="url(#paint15_linear_282_1526)"/>
<g opacity="0.1">
<path opacity="0.1" d="M112.619 81.3735L106.947 78.0959C106.763 78.6497 106.661 79.2272 106.644 79.8103V144.024C106.676 144.593 106.841 145.145 107.126 145.638C107.41 146.131 107.807 146.549 108.283 146.861L110.123 147.926C110.63 148.184 111.191 148.318 111.759 148.318C112.328 148.318 112.888 148.184 113.395 147.926L114.183 147.478L112.619 81.3735Z" fill="black"/>
</g>
<path d="M198.812 32.514V96.728C198.791 97.3159 198.615 97.8877 198.302 98.3857C198.06 98.8051 197.733 99.1699 197.344 99.4572L197.281 99.495L197.173 99.5644L113.401 147.927C113.241 148.04 113.055 148.111 112.86 148.133C112.665 148.155 112.467 148.127 112.286 148.053C112.108 147.939 111.967 147.777 111.876 147.587C111.786 147.396 111.751 147.184 111.775 146.975V82.7671C111.761 82.5372 111.803 82.3072 111.897 82.097C111.991 81.8867 112.135 81.7025 112.316 81.5599C112.496 81.4174 112.709 81.3209 112.936 81.2786C113.162 81.2364 113.395 81.2497 113.616 81.3174L148.824 89.694L153.437 90.7907C153.983 90.8939 154.546 90.8457 155.066 90.6512C155.586 90.4568 156.043 90.1235 156.387 89.6877L161.732 82.2439L197.709 32.1547C198.314 31.3227 198.812 31.4677 198.812 32.514Z" fill="url(#paint16_linear_282_1526)"/>
<path opacity="0.3" d="M198.812 32.514V96.728C198.791 97.3159 198.615 97.8877 198.302 98.3857C198.06 98.8051 197.733 99.1699 197.344 99.4572L197.281 99.495L197.173 99.5644L113.401 147.927C113.241 148.04 113.055 148.111 112.86 148.133C112.665 148.155 112.467 148.127 112.286 148.053C112.108 147.939 111.967 147.777 111.876 147.587C111.786 147.396 111.751 147.184 111.775 146.975V82.7671C111.761 82.5372 111.803 82.3072 111.897 82.097C111.991 81.8867 112.135 81.7025 112.316 81.5599C112.496 81.4174 112.709 81.3209 112.936 81.2786C113.162 81.2364 113.395 81.2497 113.616 81.3174L148.824 89.694L153.437 90.7907C153.983 90.8939 154.546 90.8457 155.066 90.6512C155.586 90.4568 156.043 90.1235 156.387 89.6877L161.732 82.2439L197.709 32.1547C198.314 31.3227 198.812 31.4677 198.812 32.514Z" fill="url(#paint17_linear_282_1526)"/>
<path d="M197.173 99.5638L197.28 99.4945L197.344 99.4566C197.733 99.1694 198.06 98.8046 198.302 98.3851C198.608 97.8937 198.781 97.3312 198.806 96.7527L161.732 82.256L186.559 105.697L197.173 99.5638Z" fill="url(#paint18_linear_282_1526)"/>
<path d="M111.763 146.981C111.739 147.19 111.774 147.402 111.864 147.593C111.955 147.783 112.096 147.945 112.274 148.059C112.455 148.133 112.653 148.161 112.848 148.139C113.043 148.117 113.229 148.046 113.389 147.933L142.231 131.281L148.818 89.6813L111.75 145.903L111.763 146.981Z" fill="url(#paint19_linear_282_1526)"/>
<path d="M198.301 98.3859C198.059 98.8053 197.733 99.1702 197.343 99.4574L197.28 99.4952L113.401 147.927C113.24 148.04 113.054 148.111 112.859 148.133C112.664 148.155 112.466 148.127 112.285 148.053L152.397 84.0153C153.201 82.7318 154.44 81.7808 155.888 81.3363C157.336 80.8919 158.896 80.9837 160.282 81.595L198.301 98.3859Z" fill="url(#paint20_linear_282_1526)"/>
<path opacity="0.3" d="M198.301 98.3859C198.059 98.8053 197.733 99.1702 197.343 99.4574L197.28 99.4952L113.401 147.927C113.24 148.04 113.054 148.111 112.859 148.133C112.664 148.155 112.466 148.127 112.285 148.053L152.397 84.0153C153.201 82.7318 154.44 81.7808 155.888 81.3363C157.336 80.8919 158.896 80.9837 160.282 81.595L198.301 98.3859Z" fill="url(#paint21_linear_282_1526)"/>
<path d="M148.949 67.6457C148.214 67.7595 147.462 67.6928 146.758 67.4512C146.054 67.2096 145.42 66.8005 144.909 66.2591C143.951 65.1939 143.472 63.5488 143.472 61.3365C143.474 58.8403 144.009 56.3733 145.042 54.1008C146.102 51.7623 147.565 49.6288 149.365 47.7979C151.301 45.7908 153.507 44.064 155.92 42.6673C158.286 41.3059 160.305 40.5516 161.978 40.4045C163.66 40.2533 164.927 40.6882 165.797 41.6966C166.667 42.7051 167.095 44.2493 167.095 46.3167C167.132 48.367 166.646 50.3929 165.684 52.2036C164.835 53.8434 163.542 55.2109 161.952 56.1492C161.404 56.5392 160.731 56.7141 160.061 56.6409C159.823 56.5937 159.604 56.4789 159.429 56.31C159.255 56.1412 159.133 55.9256 159.078 55.6891C158.553 56.6818 157.887 57.5927 157.099 58.3931C156.302 59.2152 155.394 59.9216 154.401 60.4919C152.687 61.4626 151.319 61.7525 150.311 61.4185C149.302 61.0844 148.823 60.0633 148.823 58.3615C148.838 56.2229 149.497 54.1384 150.714 52.3801C152.04 50.4308 153.8 48.8167 155.857 47.6655C156.716 47.1539 157.65 46.7796 158.624 46.5562C159.349 46.3599 160.112 46.3599 160.837 46.5562V53.1932C160.837 53.7289 160.931 54.0567 161.114 54.1827C161.297 54.3088 161.599 54.2457 162.028 53.9999C162.826 53.4805 163.417 52.6977 163.698 51.7876C164.124 50.5582 164.327 49.2625 164.297 47.9617C164.297 46.3062 163.936 45.1023 163.213 44.3502C162.827 43.9726 162.356 43.6931 161.839 43.5352C161.322 43.3773 160.776 43.3455 160.244 43.4425C158.705 43.6776 157.232 44.2269 155.914 45.0561C153.127 46.6019 150.725 48.7563 148.886 51.359C147.187 53.8015 146.284 56.7097 146.302 59.6852C146.302 61.4962 146.674 62.8177 147.418 63.6497C147.803 64.0661 148.286 64.3808 148.823 64.5655C149.359 64.7503 149.933 64.7994 150.494 64.7086C152.062 64.4864 153.566 63.9343 154.906 63.0887C155.83 62.5539 156.706 61.938 157.521 61.2483C158.281 60.6213 158.972 59.9156 159.582 59.1431C159.646 59.0618 159.72 58.9897 159.803 58.9288C159.86 58.8973 159.916 58.9288 159.967 59.0044L160.66 60.265C160.686 60.315 160.705 60.3679 160.717 60.4226C160.695 60.563 160.626 60.6918 160.522 60.7882C159.76 61.7038 158.916 62.5477 158 63.3093C157.036 64.1181 156.005 64.8435 154.918 65.4775C153.108 66.621 151.072 67.3605 148.949 67.6457ZM157.143 55.7963C157.743 55.0881 158.093 54.2021 158.139 53.2751V49.4303C157.239 49.5063 156.373 49.8052 155.618 50.3001C154.416 50.9764 153.391 51.9292 152.63 53.0797C151.916 54.1352 151.532 55.3792 151.527 56.6535C151.527 57.7187 151.792 58.3552 152.328 58.5443C152.864 58.7334 153.689 58.5443 154.817 57.8699C155.731 57.3415 156.53 56.6366 157.168 55.7963H157.143Z" fill="#E0E0E0"/>
<path d="M68.6765 73.9613L62.5312 70.4002H62.4871C60.3882 69.2152 57.4952 69.3917 54.2933 71.2384C47.858 74.9509 42.6455 83.9829 42.6455 91.4078C42.6455 95.1202 43.9439 97.7107 46.0428 98.9713L51.7595 102.242L52.7932 100.522C53.9655 100.259 55.0917 99.8213 56.1337 99.2234C62.5627 95.5047 67.7815 86.4726 67.7815 79.0541C67.7781 78.0514 67.6553 77.0527 67.416 76.0791L68.6765 73.9613Z" fill="#F28F8F"/>
<path d="M68.6765 73.9613L62.5312 70.4002H62.4871C60.3882 69.2152 57.4952 69.3917 54.2933 71.2384C47.858 74.9509 42.6455 83.9829 42.6455 91.4078C42.6455 95.1202 43.9439 97.7107 46.0428 98.9713L51.7595 102.242L52.7932 100.522C53.9655 100.259 55.0917 99.8213 56.1337 99.2234C62.5627 95.5047 67.7815 86.4726 67.7815 79.0541C67.7781 78.0514 67.6553 77.0527 67.416 76.0791L68.6765 73.9613Z" fill="url(#paint22_linear_282_1526)"/>
<path opacity="0.4" d="M68.6765 73.9613L62.5312 70.4002H62.4871C60.3882 69.2152 57.4952 69.3917 54.2933 71.2384C47.858 74.9509 42.6455 83.9829 42.6455 91.4078C42.6455 95.1202 43.9439 97.7107 46.0428 98.9713L51.7595 102.242L52.7932 100.522C53.9655 100.259 55.0917 99.8213 56.1337 99.2234C62.5627 95.5047 67.7815 86.4726 67.7815 79.0541C67.7781 78.0514 67.6553 77.0527 67.416 76.0791L68.6765 73.9613Z" fill="black"/>
<path d="M60.1992 74.6229C53.7639 78.3416 48.5514 87.3737 48.5514 94.7922C48.5514 102.211 53.7639 105.23 60.1992 101.517C66.6345 97.805 71.847 88.7729 71.847 81.3481C71.847 73.9233 66.6345 70.9105 60.1992 74.6229Z" fill="url(#paint23_linear_282_1526)"/>
<path d="M55.6467 96.5703C55.5269 96.5703 55.4639 96.501 55.4639 96.3939C55.4763 96.2752 55.5105 96.1598 55.5647 96.0535L56.1509 94.7362C56.1897 94.6072 56.2666 94.4929 56.3715 94.4084C56.4588 94.369 56.5531 94.3476 56.6488 94.3454C57.1733 94.3142 57.6909 94.2102 58.1867 94.0366C58.8461 93.8144 59.4799 93.5229 60.0776 93.1668C61.0076 92.6629 61.8231 91.9719 62.4727 91.1372C62.9599 90.5059 63.2317 89.7348 63.248 88.9375C63.248 87.5446 62.3971 87.3429 60.6953 88.3072L59.0376 89.3094C58.7666 89.4606 58.5775 89.5174 58.4641 89.467C58.3506 89.4165 58.2939 89.2653 58.2939 89.0131V88.49C58.2849 88.2675 58.3443 88.0475 58.4641 87.8597C58.6158 87.6548 58.8119 87.4867 59.0376 87.3681L60.6827 86.4163C61.3419 86.0577 61.9009 85.5398 62.3088 84.9099C62.6507 84.3815 62.8384 83.7681 62.8509 83.1388C62.8509 81.79 61.9012 81.6639 60.002 82.7607C58.834 83.4262 57.7823 84.2778 56.8883 85.2818C56.8043 85.3766 56.7115 85.4631 56.611 85.5402C56.5739 85.5578 56.532 85.5624 56.492 85.5533C56.4519 85.5441 56.4162 85.5218 56.3904 85.4898L55.8294 84.8595C55.7981 84.8305 55.7731 84.7954 55.7557 84.7564C55.7384 84.7174 55.7292 84.6753 55.7286 84.6326C55.7414 84.488 55.8037 84.3521 55.9051 84.2481C56.4634 83.5498 57.0976 82.9156 57.7959 82.3573C58.6091 81.6946 59.4756 81.1001 60.3864 80.5798C61.2088 80.0681 62.116 79.7073 63.0652 79.5147C63.3639 79.4418 63.6749 79.4351 63.9765 79.495C64.278 79.5549 64.5629 79.6799 64.8111 79.8613C65.0349 80.0771 65.2077 80.3402 65.3167 80.6314C65.4258 80.9226 65.4684 81.2344 65.4414 81.5442C65.4272 82.2381 65.2728 82.922 64.9876 83.5548C64.6829 84.2852 64.2567 84.9586 63.727 85.5465C63.999 85.4554 64.2898 85.4347 64.572 85.4865C64.8542 85.5383 65.1186 85.6609 65.3405 85.8428C65.5347 86.0688 65.6821 86.3312 65.7741 86.6147C65.8661 86.8982 65.9008 87.1971 65.8763 87.4941C65.8281 88.8914 65.3382 90.2375 64.477 91.3389C63.4199 92.7568 62.0699 93.9305 60.5188 94.7803C58.3002 96.0787 56.6761 96.6754 55.6467 96.5703Z" fill="url(#paint24_linear_282_1526)"/>
<path d="M165.842 164.232C164.127 162.24 165.653 158.931 167.317 154.639C169.144 149.918 171.968 141.894 171.968 141.894L192.018 137.753C192.018 137.753 213.378 137.343 215.339 141.428C216.927 144.699 202.859 149.622 200.842 149.798L188.494 150.447L187.196 151.077L178.523 162.051L165.842 164.232Z" fill="url(#paint25_linear_282_1526)"/>
<path d="M202.784 144.775C201.227 146.358 199.776 148.043 198.441 149.817C194.83 154.86 189.113 164.018 189.113 164.018C189.113 164.018 190.001 166.917 192.731 166.791C192.731 166.791 211.513 149.25 213.051 147.63C215.377 145.172 217.243 141.119 213.221 140.785C209.2 140.451 204.347 143.086 202.784 144.775Z" fill="url(#paint26_linear_282_1526)"/>
<path d="M198.34 149.918C198.34 149.918 201.693 145.014 205.166 142.985C205.166 142.985 201.712 143.666 196.481 150.032L198.34 149.918Z" fill="url(#paint27_linear_282_1526)"/>
<path opacity="0.1" d="M198.34 149.918C198.34 149.918 201.693 145.014 205.166 142.985C205.166 142.985 201.712 143.666 196.481 150.032L198.34 149.918Z" fill="black"/>
<path d="M200.622 156.12L199.305 156.372L200.527 160.891C200.527 160.891 201.712 160.778 202.122 160.803C202.719 160.661 203.294 160.439 203.83 160.141L203.515 157.381L202.065 155.868L200.622 156.12Z" fill="#FFA8A7"/>
<path d="M211.021 157.186C211.649 157.439 212.219 157.82 212.694 158.303C213.169 158.787 213.539 159.363 213.781 159.997C214.062 160.659 214.292 161.342 214.468 162.039C214.676 162.77 214.576 164.012 213.649 164.213C213.348 164.249 213.043 164.194 212.773 164.056C210.914 163.337 209.098 162.505 207.195 161.9C205.564 161.296 203.856 160.925 202.121 160.797C202.515 160.19 202.712 159.476 202.685 158.753C202.658 158.03 202.408 157.333 201.97 156.757C201.597 156.412 201.125 156.191 200.621 156.127C201.1 155.912 201.547 155.635 202.007 155.377C202.864 154.777 203.914 154.519 204.951 154.652C205.745 154.822 206.35 155.452 207.025 155.912C208.31 156.751 209.552 156.694 211.021 157.186Z" fill="black"/>
<path d="M168.545 159.902C170.203 159.392 172.85 158.938 180.703 158.534C188.557 158.131 199.303 156.366 199.303 156.366C201.131 158.125 200.526 160.885 200.526 160.885C200.526 160.885 186.578 165.297 182.033 165.884C174.798 166.816 172.302 166.747 169.037 166.047C165.368 165.26 163.055 161.585 168.545 159.902Z" fill="url(#paint28_linear_282_1526)"/>
<path d="M197.25 122.494L203.149 136.594L198.926 139.191L190.808 125.444L197.25 122.494Z" fill="#F28F8F"/>
<path d="M185.046 109.207C188.273 109.245 191.821 110.418 193.044 112.945L198.086 123.345C198.086 123.345 195.237 127.517 190.712 127.221L185.046 109.207Z" fill="#E0E0E0"/>
<path d="M163.592 131.123C163.63 130.574 164.418 127.896 165.262 125.009L171.389 127.127L169.743 132.314L164.581 137.211C163.463 135.391 163.108 133.203 163.592 131.123Z" fill="#FFA8A7"/>
<path d="M178.448 109.403C174.603 110.329 169.365 111.533 167.846 115.706C166.327 119.878 164.153 127.246 164.153 127.246C164.997 128.709 169.63 129.919 171.237 129.074L171.993 126.553V141.882C175 145.153 189.831 144.315 192.043 137.741V116.859C192.043 113.519 190.19 109.504 185.066 109.207L178.448 109.403Z" fill="#FAFAFA"/>
<path d="M171.975 126.566L173.904 120.496L171.975 129.282V126.566Z" fill="#E0E0E0"/>
<path d="M176.986 92.3161C176.644 92.2717 176.296 92.3054 175.968 92.4145C175.641 92.5237 175.342 92.7055 175.095 92.9464C174.282 93.7784 174.465 95.3163 175.095 98.8459L177.616 99.1296L176.986 92.3161Z" fill="black"/>
<path d="M191.614 91.2949C192.154 91.2973 192.688 91.1878 193.184 90.9735C193.953 90.5323 194.154 91.4084 193.732 92.1647C193.453 92.7101 193.039 93.1748 192.529 93.5147C192.019 93.8545 191.431 94.0581 190.82 94.106C190.82 93.9989 190.102 92.1458 190.102 92.1458L191.614 91.2949Z" fill="black"/>
<path d="M178.163 99.1666C177.791 99.3872 177.255 98.6749 176.795 98.1896C176.615 97.9832 176.385 97.8262 176.127 97.7334C175.869 97.6406 175.591 97.6151 175.321 97.6593C175.05 97.7034 174.795 97.8158 174.58 97.9858C174.365 98.1558 174.197 98.3778 174.091 98.6308C173.329 100.238 175.062 102.375 176.077 103.081C176.361 103.326 176.716 103.476 177.091 103.507C177.466 103.539 177.841 103.451 178.163 103.257L178.428 109.402C178.877 110.387 179.564 111.245 180.426 111.9C181.288 112.554 182.3 112.985 183.369 113.153C186.974 113.638 186.231 110.663 185.046 109.207V106.957C185.948 107.15 186.876 107.196 187.794 107.096C188.26 106.97 189.382 105.614 190.107 104.095C190.92 102.394 192.275 99.3683 191.071 94.244C189.773 88.7479 183.867 88.5714 180.356 90.7963C176.846 93.0212 178.163 99.1666 178.163 99.1666Z" fill="#FFA8A7"/>
<path d="M178.163 99.7913C177.974 99.7913 177.262 98.6127 176.796 98.1904C176.165 97.6042 176.985 92.3161 176.985 92.3161C176.985 92.3161 176.354 90.3055 177.615 88.9755C178.876 87.6456 181.346 87.8662 183.149 87.8032C185.358 87.8153 187.545 87.3756 189.578 86.5111C192.137 85.4018 192.326 85.2505 192.641 86.3913C192.956 87.5322 193.082 90.0849 191.557 91.8056L190.725 93.1607C190.725 93.1607 189.95 93.791 187.574 94.1061C185.197 94.4213 181.126 93.1166 180.64 93.0472C179.947 92.9527 179.802 93.6208 179.43 95.4486C179.077 97.0559 178.794 99.7787 178.163 99.7913Z" fill="black"/>
<path d="M176.992 92.7253L174.736 91.5152C174.81 91.3652 174.913 91.2315 175.04 91.1218C175.166 91.0122 175.313 90.9289 175.472 90.8767C175.631 90.8244 175.799 90.8044 175.966 90.8177C176.132 90.831 176.295 90.8774 176.444 90.9542C176.744 91.1234 176.968 91.4012 177.07 91.7306C177.172 92.06 177.144 92.416 176.992 92.7253Z" fill="black"/>
<path d="M185.041 106.957C185.041 106.957 181.7 106.283 180.534 105.697C179.848 105.337 179.286 104.779 178.92 104.096C179.098 104.781 179.411 105.424 179.841 105.987C180.692 107.077 185.041 107.878 185.041 107.878V106.957Z" fill="#F28F8F"/>
<path d="M185.147 99.0407C185.142 99.1717 185.099 99.2983 185.023 99.4048C184.946 99.5113 184.84 99.593 184.718 99.6397C184.595 99.6864 184.462 99.6961 184.334 99.6676C184.206 99.639 184.089 99.5735 183.999 99.4791C183.908 99.3848 183.846 99.2657 183.823 99.1369C183.799 99.008 183.813 98.875 183.865 98.7544C183.916 98.6337 184.001 98.5309 184.111 98.4585C184.22 98.3861 184.348 98.3475 184.479 98.3474C184.569 98.3491 184.657 98.3683 184.739 98.404C184.821 98.4398 184.895 98.4913 184.957 98.5557C185.019 98.6201 185.068 98.696 185.1 98.7793C185.133 98.8625 185.149 98.9513 185.147 99.0407Z" fill="black"/>
<path d="M184.442 96.5198L183.005 97.3077C182.906 97.1106 182.885 96.8831 182.947 96.6713C183.009 96.4594 183.149 96.2791 183.339 96.1668C183.434 96.115 183.539 96.083 183.647 96.0728C183.754 96.0626 183.863 96.0743 183.966 96.1073C184.069 96.1403 184.165 96.1939 184.246 96.2648C184.328 96.3357 184.395 96.4224 184.442 96.5198Z" fill="black"/>
<path d="M184.75 103.516L186.282 104.096C186.248 104.198 186.194 104.292 186.123 104.373C186.052 104.454 185.965 104.52 185.868 104.567C185.771 104.614 185.666 104.641 185.558 104.647C185.451 104.652 185.343 104.636 185.242 104.6C185.036 104.518 184.869 104.359 184.777 104.157C184.686 103.955 184.676 103.725 184.75 103.516Z" fill="#F28F8F"/>
<path d="M191.115 97.0742L189.811 96.0657C189.872 95.9781 189.951 95.904 190.043 95.8477C190.134 95.7915 190.236 95.7543 190.342 95.7384C190.448 95.7225 190.556 95.7282 190.659 95.7552C190.763 95.7822 190.86 95.83 190.945 95.8955C191.119 96.0326 191.234 96.2314 191.266 96.4508C191.298 96.6702 191.244 96.8934 191.115 97.0742Z" fill="black"/>
<path d="M190.713 98.852C190.708 98.983 190.665 99.1096 190.589 99.2161C190.512 99.3226 190.406 99.4043 190.284 99.451C190.161 99.4977 190.028 99.5074 189.9 99.4789C189.772 99.4503 189.655 99.3848 189.564 99.2904C189.474 99.196 189.412 99.077 189.389 98.9482C189.365 98.8193 189.379 98.6863 189.431 98.5656C189.482 98.445 189.567 98.3421 189.677 98.2698C189.786 98.1974 189.914 98.1588 190.045 98.1587C190.134 98.1603 190.223 98.1796 190.305 98.2153C190.387 98.251 190.461 98.3026 190.523 98.3669C190.585 98.4313 190.634 98.5073 190.666 98.5905C190.699 98.6738 190.715 98.7626 190.713 98.852Z" fill="black"/>
<path d="M187.562 98.7701L186.932 102.754L189.138 102.495L187.562 98.7701Z" fill="#F28F8F"/>
<path d="M210.555 144.006L196.972 136.165C196.853 136.097 196.718 136.062 196.581 136.062C196.444 136.062 196.309 136.097 196.19 136.165L172.372 149.918L186.339 158.011L210.555 144.006Z" fill="#858585"/>
<path d="M186.212 156.832L178.888 152.609L200.305 140.243L207.667 144.447L186.212 156.832Z" fill="black"/>
<path d="M182.613 145.084L182.752 145.159L186.338 147.233L192.723 143.546L192.855 143.47L189.13 141.321L182.613 145.084Z" fill="black"/>
<path d="M182.752 145.159L186.339 147.233L192.723 143.546L189.131 141.472L182.752 145.159Z" fill="black"/>
<path d="M172.372 149.918V150.239C172.37 150.467 172.427 150.691 172.537 150.89C172.648 151.089 172.808 151.255 173.002 151.374L185.658 158.679C185.857 158.795 186.083 158.856 186.314 158.856C186.544 158.856 186.77 158.795 186.969 158.679L209.874 145.443C210.068 145.324 210.227 145.157 210.338 144.958C210.448 144.759 210.505 144.536 210.504 144.308V143.987L186.339 158.011L172.372 149.918Z" fill="black"/>
<path d="M186.338 158.011V158.88C186.56 158.878 186.777 158.817 186.968 158.704L209.873 145.468C210.067 145.349 210.226 145.182 210.337 144.983C210.447 144.784 210.504 144.561 210.503 144.333V144.012L186.338 158.011Z" fill="black"/>
<path d="M186.711 158.181C186.927 158.264 187.16 158.297 187.391 158.279C187.622 158.26 187.846 158.19 188.047 158.074L210.851 144.907C211.049 144.794 211.219 144.637 211.348 144.45C211.478 144.262 211.564 144.048 211.601 143.823L214.122 128.942C214.128 128.856 214.128 128.769 214.122 128.683C214.121 128.269 213.955 127.873 213.662 127.58L189.963 141.264C189.817 141.348 189.692 141.464 189.596 141.602C189.5 141.74 189.436 141.898 189.408 142.064L186.711 158.181Z" fill="black"/>
<path d="M186.338 158.011L186.495 158.099C186.565 158.139 186.636 158.175 186.71 158.206L189.407 142.09C189.435 141.924 189.499 141.766 189.595 141.628C189.691 141.489 189.816 141.374 189.962 141.289L213.661 127.606C213.564 127.516 213.459 127.435 213.346 127.366L189.603 141.05C189.456 141.134 189.33 141.25 189.233 141.388C189.136 141.526 189.071 141.684 189.042 141.85L186.338 158.011Z" fill="black"/>
<path d="M199.549 144.434C199.908 143.19 200.732 142.132 201.85 141.478C202.953 140.848 203.709 141.132 203.545 142.109C203.187 143.353 202.363 144.411 201.245 145.065C200.142 145.726 199.386 145.405 199.549 144.434Z" fill="#858585"/>
<path d="M169.742 132.301C169.742 132.301 173.833 148.059 175.56 149.187C177.287 150.315 180.501 151.141 182.039 151.708C183.577 152.275 184.277 153.051 184.012 153.265C183.747 153.479 181.529 153.712 180.76 153.983C179.991 154.254 180.987 155.496 182.689 156.813C184.39 158.131 185.84 158.011 185.651 158.887C185.462 159.763 181.668 160.639 178.466 158.761C175.264 156.883 174.293 154.349 172.383 152.2C170.474 150.05 166.112 141.119 164.58 137.211C164.58 137.211 164.725 129.95 167.101 130.411C169.478 130.871 169.742 132.301 169.742 132.301Z" fill="#FFA8A7"/>
<path d="M189.207 164.232C189.497 164.932 190.499 166.86 192.73 166.753L198.214 161.623L189.207 164.232Z" fill="url(#paint29_linear_282_1526)"/>
<path opacity="0.1" d="M189.207 164.232C189.497 164.932 190.499 166.86 192.73 166.753L198.214 161.623L189.207 164.232Z" fill="black"/>
<path d="M192.516 167.365C192.519 167.388 192.519 167.411 192.516 167.434C192.519 167.411 192.519 167.388 192.516 167.365Z" fill="black"/>
<path d="M190.864 173.258C190.811 171.607 191.083 169.963 191.665 168.417C191.401 168.601 191.096 168.719 190.777 168.761C190.458 168.803 190.133 168.767 189.83 168.657C187.996 168.108 187.536 165.549 187.826 164.995C187.561 165.228 187.284 165.448 187.013 165.675C186.144 166.259 185.525 167.147 185.28 168.165C185.154 168.965 185.526 169.753 185.708 170.548C186.061 172.06 185.708 173.636 185.652 175.186C185.664 175.863 185.816 176.53 186.097 177.146C186.377 177.762 186.782 178.313 187.284 178.766C187.801 179.271 188.357 179.732 188.948 180.147C189.163 180.389 189.448 180.558 189.763 180.631C190.078 180.704 190.408 180.677 190.707 180.555C191.007 180.432 191.261 180.22 191.435 179.947C191.608 179.674 191.693 179.354 191.677 179.031C191.438 177.065 190.978 175.306 190.864 173.258Z" fill="black"/>
<path d="M192.944 166.425C192.773 166.747 192.622 167.056 192.49 167.364C192.647 167.062 192.799 166.747 192.944 166.425Z" fill="#858585"/>
<path d="M187.814 164.994L187.934 164.887L187.814 164.994Z" fill="#858585"/>
<defs>
<linearGradient id="paint0_linear_282_1526" x1="67.1476" y1="27.2942" x2="33.5629" y2="39.5026" gradientUnits="userSpaceOnUse">
<stop stop-color="#F53939"/>
<stop offset="0.203125" stop-color="#FF6F1E"/>
<stop offset="1" stop-color="#FFC939"/>
</linearGradient>
<linearGradient id="paint1_linear_282_1526" x1="66.6249" y1="25.8137" x2="45.0112" y2="50.4629" gradientUnits="userSpaceOnUse">
<stop stop-color="#F53939"/>
<stop offset="0.203125" stop-color="#FF6F1E"/>
<stop offset="1" stop-color="#FFC939"/>
</linearGradient>
<linearGradient id="paint2_linear_282_1526" x1="37.8633" y1="37.6438" x2="32.2885" y2="38.8928" gradientUnits="userSpaceOnUse">
<stop stop-color="#F53939"/>
<stop offset="0.203125" stop-color="#FF6F1E"/>
<stop offset="1" stop-color="#FFC939"/>
</linearGradient>
<linearGradient id="paint3_linear_282_1526" x1="278.041" y1="54.1637" x2="241.169" y2="70.236" gradientUnits="userSpaceOnUse">
<stop stop-color="#370041"/>
<stop offset="1" stop-color="#121843"/>
</linearGradient>
<linearGradient id="paint4_linear_282_1526" x1="263.464" y1="46.109" x2="237.942" y2="50.6442" gradientUnits="userSpaceOnUse">
<stop stop-color="#370041"/>
<stop offset="1" stop-color="#121843"/>
</linearGradient>
<linearGradient id="paint5_linear_282_1526" x1="118.348" y1="33.5502" x2="15.3213" y2="48.8678" gradientUnits="userSpaceOnUse">
<stop stop-color="#F22277"/>
<stop offset="1" stop-color="#580167"/>
</linearGradient>
<linearGradient id="paint6_linear_282_1526" x1="38.1681" y1="83.5299" x2="29.4009" y2="83.7159" gradientUnits="userSpaceOnUse">
<stop stop-color="#F22277"/>
<stop offset="1" stop-color="#580167"/>
</linearGradient>
<linearGradient id="paint7_linear_282_1526" x1="118.609" y1="36.9436" x2="21.1892" y2="51.0434" gradientUnits="userSpaceOnUse">
<stop stop-color="#F22277"/>
<stop offset="1" stop-color="#580167"/>
</linearGradient>
<linearGradient id="paint8_linear_282_1526" x1="121.16" y1="87.5883" x2="82.4307" y2="99.4543" gradientUnits="userSpaceOnUse">
<stop stop-color="#F22277"/>
<stop offset="1" stop-color="#580167"/>
</linearGradient>
<linearGradient id="paint9_linear_282_1526" x1="71.1779" y1="94.9817" x2="29.4475" y2="100.104" gradientUnits="userSpaceOnUse">
<stop stop-color="#F22277"/>
<stop offset="1" stop-color="#580167"/>
</linearGradient>
<linearGradient id="paint10_linear_282_1526" x1="118.152" y1="86.3917" x2="25.5889" y2="109.387" gradientUnits="userSpaceOnUse">
<stop stop-color="#F22277"/>
<stop offset="1" stop-color="#580167"/>
</linearGradient>
<linearGradient id="paint11_linear_282_1526" x1="118.448" y1="36.0498" x2="24.9624" y2="59.2877" gradientUnits="userSpaceOnUse">
<stop stop-color="#F22277"/>
<stop offset="1" stop-color="#580167"/>
</linearGradient>
<linearGradient id="paint12_linear_282_1526" x1="118.448" y1="36.0498" x2="25.4142" y2="60.121" gradientUnits="userSpaceOnUse">
<stop stop-color="#F22277"/>
<stop offset="1" stop-color="#580167"/>
</linearGradient>
<linearGradient id="paint13_linear_282_1526" x1="194.103" y1="18.1237" x2="90.7428" y2="32.2995" gradientUnits="userSpaceOnUse">
<stop stop-color="#F22277"/>
<stop offset="1" stop-color="#580167"/>
</linearGradient>
<linearGradient id="paint14_linear_282_1526" x1="194.103" y1="18.1237" x2="90.7428" y2="32.2995" gradientUnits="userSpaceOnUse">
<stop stop-color="#98B3D6"/>
<stop offset="1" stop-color="#E2E8F0"/>
</linearGradient>
<linearGradient id="paint15_linear_282_1526" x1="113.798" y1="78.0959" x2="105.189" y2="78.275" gradientUnits="userSpaceOnUse">
<stop stop-color="#F22277"/>
<stop offset="1" stop-color="#580167"/>
</linearGradient>
<linearGradient id="paint16_linear_282_1526" x1="194.371" y1="31.6173" x2="96.9608" y2="45.7149" gradientUnits="userSpaceOnUse">
<stop stop-color="#F22277"/>
<stop offset="1" stop-color="#580167"/>
</linearGradient>
<linearGradient id="paint17_linear_282_1526" x1="194.371" y1="31.6173" x2="96.9608" y2="45.7149" gradientUnits="userSpaceOnUse">
<stop stop-color="#98B3D6"/>
<stop offset="1" stop-color="#E2E8F0"/>
</linearGradient>
<linearGradient id="paint18_linear_282_1526" x1="196.914" y1="82.256" x2="158.192" y2="94.121" gradientUnits="userSpaceOnUse">
<stop stop-color="#F22277"/>
<stop offset="1" stop-color="#580167"/>
</linearGradient>
<linearGradient id="paint19_linear_282_1526" x1="146.927" y1="89.6813" x2="105.206" y2="94.8059" gradientUnits="userSpaceOnUse">
<stop stop-color="#F22277"/>
<stop offset="1" stop-color="#580167"/>
</linearGradient>
<linearGradient id="paint20_linear_282_1526" x1="193.912" y1="81.0588" x2="101.349" y2="104.053" gradientUnits="userSpaceOnUse">
<stop stop-color="#F22277"/>
<stop offset="1" stop-color="#580167"/>
</linearGradient>
<linearGradient id="paint21_linear_282_1526" x1="193.912" y1="81.0588" x2="101.349" y2="104.053" gradientUnits="userSpaceOnUse">
<stop stop-color="#98B3D6"/>
<stop offset="1" stop-color="#E2E8F0"/>
</linearGradient>
<linearGradient id="paint22_linear_282_1526" x1="67.3484" y1="69.6504" x2="38.3027" y2="74.1448" gradientUnits="userSpaceOnUse">
<stop stop-color="#370041"/>
<stop offset="1" stop-color="#121843"/>
</linearGradient>
<linearGradient id="paint23_linear_282_1526" x1="70.6584" y1="73.0334" x2="44.6288" y2="76.9399" gradientUnits="userSpaceOnUse">
<stop stop-color="#370041"/>
<stop offset="1" stop-color="#121843"/>
</linearGradient>
<linearGradient id="paint24_linear_282_1526" x1="65.3523" y1="79.4546" x2="53.6102" y2="80.8386" gradientUnits="userSpaceOnUse">
<stop stop-color="#98B3D6"/>
<stop offset="1" stop-color="#E2E8F0"/>
</linearGradient>
<linearGradient id="paint25_linear_282_1526" x1="212.893" y1="137.742" x2="162.217" y2="156.411" gradientUnits="userSpaceOnUse">
<stop stop-color="#F22277"/>
<stop offset="1" stop-color="#580167"/>
</linearGradient>
<linearGradient id="paint26_linear_282_1526" x1="214.225" y1="140.756" x2="185.119" y2="146.487" gradientUnits="userSpaceOnUse">
<stop stop-color="#F22277"/>
<stop offset="1" stop-color="#580167"/>
</linearGradient>
<linearGradient id="paint27_linear_282_1526" x1="204.723" y1="142.985" x2="195.335" y2="145.227" gradientUnits="userSpaceOnUse">
<stop stop-color="#F22277"/>
<stop offset="1" stop-color="#580167"/>
</linearGradient>
<linearGradient id="paint28_linear_282_1526" x1="198.819" y1="156.366" x2="170.962" y2="175.044" gradientUnits="userSpaceOnUse">
<stop stop-color="#F22277"/>
<stop offset="1" stop-color="#580167"/>
</linearGradient>
<linearGradient id="paint29_linear_282_1526" x1="197.754" y1="161.623" x2="188.529" y2="164.758" gradientUnits="userSpaceOnUse">
<stop stop-color="#F22277"/>
<stop offset="1" stop-color="#580167"/>
</linearGradient>
</defs>
</svg>
