<svg width="280" height="280" viewBox="0 0 280 280" fill="none" xmlns="http://www.w3.org/2000/svg">
<g clip-path="url(#clip0_282_1432)">
<path d="M140 253.811C217.32 253.811 280 222.585 280 184.065C280 145.546 217.32 114.32 140 114.32C62.6801 114.32 0 145.546 0 184.065C0 222.585 62.6801 253.811 140 253.811Z" fill="#F0F0F0"/>
<path d="M115.003 236.915C138.009 236.915 156.66 226.148 156.66 212.867C156.66 199.585 138.009 188.818 115.003 188.818C91.9967 188.818 73.3464 199.585 73.3464 212.867C73.3464 226.148 91.9967 236.915 115.003 236.915Z" fill="#E0E0E0"/>
<path d="M166.233 167.57L164.29 166.447C163.966 166.237 163.696 165.953 163.503 165.619C163.309 165.285 163.198 164.91 163.177 164.524V83.7543C163.198 83.3695 163.309 82.995 163.502 82.661C163.694 82.327 163.962 82.0429 164.284 81.8315L218.304 50.6455C218.648 50.4712 219.028 50.3803 219.414 50.3803C219.799 50.3803 220.18 50.4712 220.524 50.6455L222.467 51.7684C222.791 51.9787 223.061 52.2624 223.254 52.5966C223.447 52.9307 223.559 53.3058 223.58 53.6913V134.461C223.559 134.846 223.447 135.22 223.255 135.554C223.063 135.888 222.795 136.173 222.472 136.384L168.453 167.575C168.109 167.75 167.728 167.84 167.342 167.84C166.956 167.839 166.576 167.746 166.233 167.57Z" fill="black"/>
<path d="M223.58 53.5118C223.503 52.9375 223.036 52.7273 222.477 53.0503L168.453 84.2415C168.126 84.4464 167.857 84.7303 167.669 85.067L163.5 82.6622C163.686 82.323 163.956 82.037 164.284 81.8315L218.304 50.6455C218.648 50.4712 219.028 50.3803 219.414 50.3803C219.799 50.3803 220.18 50.4712 220.524 50.6455L222.467 51.7684C222.767 51.9617 223.022 52.2175 223.214 52.5184C223.406 52.8193 223.531 53.1582 223.58 53.5118Z" fill="#3F4781"/>
<path d="M168.263 167.662C167.935 167.795 167.582 167.856 167.228 167.841C166.875 167.826 166.528 167.735 166.212 167.575L164.264 166.447C163.942 166.236 163.674 165.952 163.481 165.618C163.289 165.284 163.178 164.909 163.156 164.524V83.7544C163.17 83.3688 163.281 82.9929 163.479 82.6622L167.648 85.0671C167.446 85.3982 167.332 85.7764 167.32 86.1644V166.934C167.34 167.57 167.74 167.862 168.263 167.662Z" fill="#3F4781"/>
<path d="M167.34 86.1746V166.934C167.34 167.642 167.853 167.929 168.453 167.575L222.472 136.384C222.795 136.173 223.063 135.888 223.255 135.554C223.447 135.22 223.559 134.846 223.58 134.461V53.6913C223.58 52.9837 223.067 52.6965 222.472 53.0503L168.453 84.2415C168.128 84.4527 167.858 84.7381 167.664 85.0741C167.471 85.4102 167.36 85.7873 167.34 86.1746Z" fill="#121843"/>
<path d="M154.727 116.94C154.029 116.525 150.794 114.684 150.625 114.587C150.493 114.508 150.38 114.401 150.295 114.273C150.21 114.145 150.155 113.999 150.134 113.847C150.113 113.695 150.126 113.54 150.173 113.394C150.22 113.248 150.299 113.114 150.404 113.002L163.177 99.3012L167.341 101.691L154.573 115.402C154.473 115.509 154.396 115.636 154.349 115.774C154.302 115.913 154.285 116.06 154.3 116.206C154.314 116.352 154.36 116.493 154.434 116.619C154.507 116.746 154.607 116.855 154.727 116.94Z" fill="#3F4781"/>
<path d="M167.341 101.706L154.573 115.402C154.431 115.553 154.338 115.744 154.307 115.949C154.276 116.154 154.308 116.364 154.399 116.55C154.489 116.737 154.634 116.892 154.814 116.994C154.995 117.097 155.202 117.142 155.409 117.125L167.341 116.14V101.706Z" fill="#121843"/>
<path d="M195.46 77.0474C201.757 73.412 206.859 76.3603 206.859 83.6313C206.859 90.9022 201.757 99.737 195.46 103.372C189.163 107.008 184.062 104.06 184.062 96.7938C184.062 89.528 189.163 80.6829 195.46 77.0474Z" fill="url(#paint0_linear_282_1432)"/>
<path d="M195.378 82.7699C197.429 81.5906 199.075 82.5443 199.075 84.903C199.005 86.1851 198.634 87.4328 197.992 88.5446C197.35 89.6565 196.454 90.6012 195.378 91.3022C193.327 92.4816 191.676 91.5278 191.676 89.1691C191.747 87.8865 192.119 86.6386 192.762 85.5267C193.405 84.4148 194.301 83.4703 195.378 82.7699Z" fill="url(#paint1_linear_282_1432)"/>
<path d="M202.67 95.3426C202.67 91.4713 199.947 89.8971 196.593 91.8353L194.496 93.0454C191.143 94.9837 188.42 99.7113 188.42 103.572V104.634C189.053 104.836 189.714 104.938 190.379 104.936C192.178 104.875 193.929 104.345 195.46 103.398C198.375 101.603 200.841 99.1648 202.67 96.2707V95.3426Z" fill="url(#paint2_linear_282_1432)"/>
<path d="M188.241 139.363L202.68 131.026C203.295 130.672 203.793 130.959 203.793 131.667V136.317C203.772 136.703 203.66 137.078 203.467 137.412C203.273 137.746 203.004 138.03 202.68 138.24L188.241 146.578C187.625 146.931 187.128 146.644 187.128 145.937V141.286C187.149 140.9 187.261 140.525 187.454 140.191C187.647 139.857 187.917 139.573 188.241 139.363Z" fill="url(#paint3_linear_282_1432)"/>
<path d="M181.17 128.975L209.735 112.474C210.469 112.048 211.069 112.392 211.069 113.243V114.971C211.044 115.433 210.91 115.883 210.678 116.284C210.446 116.685 210.123 117.026 209.735 117.279L181.154 133.779C180.421 134.205 179.826 133.861 179.826 133.01V131.297C179.85 130.831 179.984 130.378 180.217 129.974C180.451 129.57 180.777 129.227 181.17 128.975Z" fill="#FAFAFA"/>
<path d="M184.513 117.032C184.903 116.807 185.205 116.771 185.42 116.93C185.636 117.089 185.743 117.443 185.743 117.986C185.754 118.482 185.643 118.973 185.42 119.417C185.219 119.817 184.903 120.149 184.513 120.37L183.744 120.817V122.473C183.742 122.53 183.728 122.586 183.703 122.637C183.685 122.683 183.652 122.723 183.61 122.75L183.221 122.975C183.207 122.985 183.191 122.991 183.175 122.991C183.158 122.991 183.142 122.985 183.128 122.975C183.101 122.941 183.088 122.896 183.092 122.852V118.058C183.092 118.001 183.104 117.945 183.128 117.894C183.148 117.848 183.18 117.809 183.221 117.781L184.513 117.032ZM183.744 119.888L184.487 119.458C184.667 119.356 184.818 119.212 184.928 119.037C185.045 118.831 185.102 118.597 185.092 118.36C185.092 118.084 185.036 117.925 184.928 117.878C184.852 117.86 184.773 117.859 184.696 117.876C184.62 117.893 184.548 117.927 184.487 117.976L183.744 118.407V119.888Z" fill="#FAFAFA"/>
<path d="M187.892 115.079C187.943 115.048 187.984 115.048 188.01 115.079C188.043 115.125 188.065 115.177 188.076 115.233L189.261 119.242C189.261 119.242 189.261 119.273 189.261 119.288C189.26 119.346 189.246 119.402 189.22 119.453C189.202 119.499 189.17 119.538 189.128 119.565L188.779 119.765C188.717 119.801 188.671 119.806 188.646 119.765C188.621 119.74 188.603 119.708 188.594 119.673L188.384 118.971L186.846 119.853L186.641 120.796C186.626 120.847 186.607 120.897 186.584 120.945C186.559 121.007 186.511 121.058 186.451 121.088L186.102 121.288C186.089 121.299 186.073 121.305 186.056 121.305C186.039 121.305 186.023 121.299 186.01 121.288C185.983 121.255 185.97 121.213 185.974 121.17C185.971 121.152 185.971 121.133 185.974 121.114L187.153 115.74C187.168 115.661 187.19 115.584 187.22 115.509C187.245 115.456 187.286 115.411 187.338 115.381L187.892 115.079ZM188.159 118.186L187.646 116.376L187.133 118.796L188.159 118.186Z" fill="#FAFAFA"/>
<path d="M191.056 113.177C191.227 113.068 191.423 113.003 191.625 112.987C191.768 112.974 191.911 113.006 192.035 113.079C192.147 113.152 192.235 113.258 192.286 113.382C192.342 113.508 192.374 113.644 192.379 113.782C192.382 113.839 192.37 113.895 192.343 113.946C192.325 113.992 192.292 114.032 192.25 114.059L191.912 114.253C191.856 114.284 191.814 114.289 191.789 114.253C191.757 114.232 191.731 114.204 191.712 114.171C191.691 114.125 191.662 114.084 191.625 114.049C191.588 114.015 191.544 113.988 191.497 113.971C191.34 113.949 191.182 113.99 191.056 114.084C190.972 114.138 190.894 114.198 190.82 114.264C190.744 114.334 190.676 114.413 190.62 114.499C190.565 114.583 190.52 114.672 190.486 114.766C190.456 114.855 190.441 114.949 190.44 115.043C190.434 115.129 190.45 115.216 190.486 115.294C190.502 115.322 190.524 115.345 190.551 115.362C190.578 115.379 190.609 115.389 190.64 115.392C190.735 115.408 190.832 115.408 190.927 115.392L191.374 115.294C191.54 115.245 191.713 115.224 191.886 115.233C192.01 115.232 192.13 115.272 192.23 115.346C192.324 115.424 192.392 115.53 192.425 115.648C192.475 115.814 192.497 115.987 192.491 116.161C192.491 116.39 192.458 116.618 192.394 116.838C192.331 117.064 192.24 117.281 192.122 117.484C191.998 117.692 191.85 117.884 191.681 118.058C191.509 118.237 191.312 118.391 191.097 118.514C190.939 118.611 190.765 118.678 190.584 118.714C190.436 118.743 190.284 118.73 190.143 118.678C190.015 118.619 189.909 118.52 189.84 118.396C189.757 118.238 189.711 118.063 189.707 117.884C189.707 117.825 189.719 117.768 189.743 117.714C189.766 117.671 189.799 117.634 189.84 117.607L190.179 117.412C190.23 117.381 190.271 117.371 190.302 117.386C190.333 117.402 190.353 117.427 190.374 117.473C190.395 117.526 190.422 117.576 190.456 117.622C190.488 117.667 190.532 117.701 190.584 117.72C190.651 117.735 190.721 117.735 190.789 117.72C190.898 117.694 191.002 117.651 191.097 117.591C191.196 117.535 191.29 117.47 191.379 117.397C191.551 117.26 191.688 117.084 191.779 116.884C191.82 116.781 191.841 116.671 191.84 116.561C191.845 116.521 191.842 116.48 191.83 116.441C191.819 116.402 191.799 116.366 191.773 116.335C191.746 116.311 191.713 116.293 191.678 116.282C191.642 116.271 191.605 116.268 191.568 116.274C191.452 116.278 191.337 116.297 191.225 116.33C191.091 116.361 190.938 116.397 190.758 116.427C190.621 116.462 190.479 116.472 190.338 116.458C190.227 116.451 190.122 116.406 190.04 116.33C189.952 116.243 189.889 116.133 189.861 116.012C189.82 115.834 189.801 115.651 189.804 115.469C189.804 115.243 189.837 115.018 189.902 114.802C189.963 114.579 190.053 114.366 190.169 114.166C190.279 113.968 190.414 113.784 190.568 113.618C190.709 113.448 190.873 113.3 191.056 113.177Z" fill="#FAFAFA"/>
<path d="M194.425 111.238C194.595 111.127 194.791 111.06 194.994 111.043C195.137 111.031 195.28 111.063 195.404 111.136C195.513 111.211 195.599 111.316 195.65 111.438C195.706 111.564 195.737 111.7 195.742 111.838C195.748 111.895 195.736 111.953 195.706 112.002C195.688 112.049 195.656 112.088 195.614 112.115L195.276 112.31C195.224 112.341 195.183 112.351 195.153 112.31C195.12 112.289 195.095 112.259 195.081 112.223C195.034 112.133 194.955 112.063 194.86 112.028C194.784 112.017 194.706 112.021 194.631 112.04C194.556 112.06 194.486 112.094 194.425 112.141C194.339 112.193 194.258 112.253 194.184 112.32C194.109 112.39 194.043 112.47 193.989 112.556C193.932 112.638 193.887 112.728 193.855 112.823C193.823 112.912 193.806 113.005 193.804 113.1C193.798 113.186 193.814 113.272 193.85 113.351C193.866 113.378 193.888 113.402 193.915 113.419C193.942 113.436 193.972 113.446 194.004 113.448C194.099 113.465 194.196 113.465 194.291 113.448L194.737 113.351C194.904 113.304 195.077 113.284 195.25 113.289C195.374 113.288 195.495 113.328 195.594 113.402C195.687 113.482 195.757 113.587 195.794 113.705C195.839 113.872 195.86 114.044 195.855 114.217C195.855 114.446 195.822 114.674 195.758 114.894C195.695 115.12 195.604 115.337 195.486 115.54C195.362 115.75 195.214 115.945 195.045 116.12C194.872 116.294 194.677 116.446 194.466 116.571C194.307 116.667 194.134 116.734 193.953 116.771C193.807 116.799 193.656 116.786 193.517 116.735C193.386 116.677 193.278 116.578 193.209 116.453C193.125 116.295 193.081 116.119 193.081 115.94C193.075 115.883 193.088 115.826 193.117 115.776C193.135 115.73 193.167 115.69 193.209 115.663L193.548 115.469C193.599 115.438 193.645 115.427 193.671 115.443C193.689 115.451 193.704 115.463 193.717 115.478C193.729 115.493 193.738 115.511 193.743 115.53C193.766 115.582 193.793 115.632 193.825 115.679C193.858 115.724 193.905 115.758 193.958 115.776C194.025 115.792 194.096 115.792 194.163 115.776C194.272 115.751 194.376 115.707 194.471 115.648C194.568 115.59 194.66 115.525 194.748 115.453C194.838 115.383 194.917 115.3 194.983 115.207C195.05 115.118 195.105 115.022 195.147 114.92C195.189 114.817 195.209 114.707 195.209 114.597C195.214 114.557 195.21 114.516 195.199 114.477C195.187 114.438 195.168 114.402 195.142 114.371C195.115 114.347 195.082 114.329 195.047 114.318C195.011 114.307 194.974 114.305 194.937 114.31C194.823 114.317 194.709 114.336 194.599 114.366C194.466 114.397 194.307 114.433 194.132 114.464C193.993 114.498 193.849 114.508 193.707 114.494C193.595 114.488 193.49 114.443 193.409 114.366C193.322 114.279 193.262 114.169 193.235 114.048C193.189 113.872 193.169 113.691 193.173 113.51C193.175 113.282 193.208 113.057 193.271 112.838C193.334 112.616 193.424 112.403 193.537 112.202C193.648 112.003 193.785 111.818 193.943 111.654C194.081 111.491 194.243 111.351 194.425 111.238Z" fill="#FAFAFA"/>
<path d="M198.162 111.879L197.747 114.335C197.735 114.409 197.714 114.481 197.686 114.551C197.666 114.606 197.628 114.653 197.578 114.684L197.188 114.91C197.137 114.94 197.101 114.94 197.075 114.91C197.041 114.867 197.021 114.815 197.019 114.761L196.404 110.428C196.404 110.428 196.404 110.387 196.404 110.372C196.405 110.315 196.419 110.259 196.445 110.208C196.464 110.162 196.496 110.123 196.537 110.095L196.891 109.89C196.92 109.878 196.954 109.878 196.983 109.89C197.014 109.89 197.034 109.931 197.045 110.013L197.45 112.93L197.804 110.741C197.813 110.686 197.828 110.633 197.85 110.582C197.87 110.517 197.914 110.462 197.973 110.428L198.368 110.197C198.424 110.167 198.465 110.172 198.491 110.197C198.513 110.23 198.528 110.266 198.537 110.305L198.896 112.084L199.301 108.7C199.306 108.633 199.325 108.569 199.357 108.51C199.381 108.472 199.413 108.439 199.449 108.413L199.803 108.208C199.817 108.198 199.833 108.192 199.849 108.192C199.866 108.192 199.882 108.198 199.896 108.208C199.91 108.225 199.921 108.244 199.928 108.265C199.935 108.286 199.938 108.309 199.937 108.331C199.939 108.351 199.939 108.372 199.937 108.392L199.321 113.433C199.311 113.507 199.292 113.579 199.265 113.648C199.241 113.703 199.202 113.749 199.152 113.782L198.757 114.007C198.711 114.033 198.675 114.033 198.65 114.007C198.624 113.96 198.603 113.91 198.588 113.858L198.162 111.879Z" fill="#FAFAFA"/>
<path d="M200.562 109.705C200.573 109.421 200.608 109.138 200.665 108.859C200.723 108.587 200.813 108.322 200.931 108.069C201.044 107.824 201.189 107.595 201.362 107.387C201.537 107.182 201.747 107.008 201.982 106.875C202.163 106.752 202.375 106.683 202.593 106.675C202.756 106.676 202.912 106.741 203.028 106.854C203.153 106.994 203.242 107.161 203.29 107.341C203.356 107.577 203.392 107.82 203.398 108.064C203.398 108.157 203.398 108.259 203.398 108.372C203.398 108.485 203.398 108.603 203.398 108.726C203.398 108.849 203.398 108.967 203.398 109.08C203.398 109.192 203.398 109.3 203.398 109.397C203.387 109.68 203.352 109.961 203.295 110.238C203.236 110.51 203.148 110.775 203.034 111.028C202.917 111.272 202.771 111.502 202.598 111.71C202.422 111.914 202.215 112.087 201.982 112.223C201.798 112.344 201.583 112.414 201.362 112.423C201.282 112.424 201.203 112.41 201.129 112.38C201.055 112.35 200.988 112.305 200.931 112.248C200.798 112.105 200.705 111.928 200.665 111.736C200.604 111.499 200.569 111.257 200.562 111.013C200.562 110.92 200.562 110.818 200.562 110.705C200.562 110.592 200.562 110.474 200.562 110.351C200.562 110.228 200.562 110.115 200.562 109.997C200.562 109.879 200.557 109.797 200.562 109.705ZM202.746 108.48C202.758 108.354 202.744 108.228 202.705 108.108C202.666 107.988 202.604 107.877 202.521 107.782C202.388 107.664 202.203 107.669 201.982 107.782C201.743 107.923 201.553 108.134 201.439 108.387C201.294 108.686 201.216 109.014 201.213 109.346C201.213 109.536 201.213 109.746 201.213 109.977C201.213 110.208 201.213 110.413 201.213 110.597C201.202 110.723 201.216 110.849 201.255 110.969C201.294 111.089 201.356 111.2 201.439 111.295C201.572 111.407 201.757 111.397 201.982 111.269C202.218 111.127 202.405 110.918 202.521 110.669C202.666 110.372 202.743 110.046 202.746 109.715C202.746 109.52 202.746 109.31 202.746 109.08C202.746 108.849 202.752 108.664 202.746 108.48Z" fill="#FAFAFA"/>
<path d="M205.633 104.829C206.038 104.598 206.341 104.562 206.551 104.731C206.676 104.869 206.768 105.032 206.823 105.209C206.877 105.386 206.891 105.573 206.864 105.757C206.868 106.105 206.815 106.452 206.705 106.782C206.601 107.09 206.439 107.376 206.228 107.623L206.895 109.074C206.897 109.098 206.897 109.122 206.895 109.146C206.895 109.192 206.884 109.238 206.864 109.28C206.85 109.317 206.825 109.349 206.792 109.372L206.382 109.608C206.315 109.644 206.269 109.649 206.238 109.608C206.211 109.581 206.189 109.55 206.172 109.515L205.541 108.146L204.9 108.516V110.249C204.901 110.305 204.888 110.361 204.864 110.413C204.843 110.457 204.811 110.496 204.772 110.526L204.382 110.751C204.369 110.762 204.353 110.768 204.336 110.768C204.319 110.768 204.303 110.762 204.29 110.751C204.275 110.735 204.264 110.717 204.257 110.697C204.25 110.676 204.247 110.655 204.249 110.633V105.839C204.25 105.782 204.264 105.726 204.29 105.675C204.308 105.628 204.34 105.589 204.382 105.562L205.633 104.829ZM204.91 107.587L205.633 107.198C205.81 107.099 205.961 106.96 206.074 106.793C206.193 106.595 206.25 106.367 206.238 106.136C206.238 105.859 206.182 105.706 206.074 105.675C205.918 105.654 205.76 105.694 205.633 105.788L204.936 106.188L204.91 107.587Z" fill="#FAFAFA"/>
<path d="M209.069 102.855C209.255 102.733 209.468 102.659 209.689 102.639C209.85 102.633 210.006 102.69 210.125 102.798C210.261 102.941 210.355 103.118 210.397 103.311C210.466 103.565 210.504 103.827 210.51 104.09C210.51 104.449 210.51 104.819 210.51 105.193C210.499 105.498 210.461 105.802 210.397 106.1C210.338 106.378 210.249 106.648 210.13 106.905C210.016 107.142 209.871 107.363 209.699 107.562C209.528 107.766 209.324 107.939 209.094 108.075L207.879 108.736C207.866 108.747 207.85 108.753 207.833 108.753C207.816 108.753 207.8 108.747 207.787 108.736C207.772 108.721 207.76 108.702 207.753 108.682C207.746 108.661 207.744 108.64 207.746 108.618V103.824C207.747 103.767 207.761 103.711 207.787 103.66C207.805 103.613 207.837 103.574 207.879 103.547L209.069 102.855ZM209.858 104.449C209.856 104.311 209.835 104.173 209.797 104.039C209.773 103.938 209.722 103.846 209.648 103.773C209.616 103.74 209.578 103.715 209.535 103.698C209.493 103.682 209.448 103.674 209.402 103.675C209.274 103.684 209.15 103.726 209.043 103.798L208.397 104.167V107.511L209.069 107.126C209.199 107.05 209.315 106.953 209.412 106.839C209.508 106.726 209.589 106.602 209.653 106.47C209.717 106.328 209.765 106.18 209.797 106.029C209.833 105.87 209.853 105.709 209.858 105.547C209.874 105.172 209.874 104.808 209.858 104.449Z" fill="#FAFAFA"/>
<path d="M143.984 28.1965C144.869 28.3935 145.722 28.7146 146.517 29.1503C147.279 29.5596 147.961 30.1013 148.532 30.7501C149.079 31.3741 149.485 32.1087 149.722 32.9037C149.964 33.7546 149.982 34.6538 149.773 35.5136C149.636 36.1953 149.366 36.8434 148.978 37.4211C148.625 37.915 148.204 38.3569 147.727 38.7337C147.259 39.097 146.76 39.4179 146.235 39.6926L144.758 40.4771C144.314 40.7091 143.891 40.9821 143.497 41.2924C143.14 41.566 142.867 41.9335 142.707 42.3538C142.629 42.5458 142.5 42.7126 142.333 42.8358C142.254 42.8971 142.162 42.9395 142.065 42.96C141.967 42.9804 141.866 42.9783 141.769 42.9537L139.595 42.4717C139.49 42.4498 139.391 42.4072 139.303 42.3464C139.215 42.2857 139.14 42.208 139.082 42.1179C139.021 42.0342 138.98 41.9372 138.963 41.8347C138.946 41.7323 138.954 41.6273 138.985 41.5283C139.16 40.855 139.468 40.2237 139.892 39.6721C140.279 39.1841 140.727 38.7481 141.226 38.3748C141.711 38.0194 142.226 37.7055 142.764 37.4364C143.277 37.1749 143.789 36.9237 144.235 36.6724C144.65 36.4494 145.041 36.183 145.399 35.8777C145.714 35.6141 145.932 35.2533 146.02 34.8521C146.101 34.5038 146.097 34.1408 146.008 33.7943C145.919 33.4479 145.747 33.1282 145.507 32.8626C144.908 32.208 144.106 31.773 143.23 31.6269C141.61 31.268 140.243 31.8132 139.128 33.2626C139.021 33.4208 138.885 33.5581 138.728 33.6677C138.551 33.7554 138.347 33.7701 138.159 33.7087L135.847 33.1959C135.682 33.1641 135.536 33.0682 135.442 32.9293C135.391 32.8551 135.357 32.7709 135.342 32.6824C135.327 32.5939 135.331 32.5033 135.354 32.4165C135.551 31.704 135.917 31.0496 136.421 30.5091C136.989 29.8822 137.665 29.3613 138.416 28.9708C139.237 28.5413 140.121 28.247 141.036 28.0991C142.016 27.9397 143.017 27.9728 143.984 28.1965ZM141.528 44.6971C141.731 44.7449 141.908 44.8703 142.02 45.0466C142.132 45.2229 142.171 45.4361 142.128 45.6406L141.574 48.1531C141.555 48.2583 141.515 48.3584 141.455 48.4467C141.395 48.5351 141.316 48.6098 141.226 48.6659C141.14 48.7251 141.042 48.7657 140.94 48.7851C140.838 48.8045 140.732 48.8023 140.631 48.7787L138.149 48.2095C138.043 48.1917 137.943 48.1514 137.855 48.0912C137.766 48.031 137.692 47.9524 137.636 47.8608C137.579 47.7742 137.54 47.6768 137.521 47.5745C137.503 47.4723 137.505 47.3673 137.529 47.266L138.087 44.7535C138.135 44.5498 138.26 44.3728 138.437 44.2598C138.613 44.1469 138.826 44.1069 139.031 44.1485L141.528 44.6971Z" fill="url(#paint4_linear_282_1432)"/>
<path d="M146.722 52.2501C147.34 52.1511 147.968 52.139 148.589 52.2142C149.182 52.2847 149.758 52.4583 150.291 52.727C150.799 52.9905 151.246 53.3572 151.604 53.8038C151.925 54.2408 152.152 54.7404 152.268 55.2703C152.385 55.8002 152.389 56.3487 152.281 56.8803C152.183 57.2891 152.026 57.6813 151.814 58.0443C151.61 58.3974 151.373 58.7305 151.106 59.0391C150.845 59.3467 150.594 59.639 150.363 59.921C150.137 60.1837 149.936 60.467 149.763 60.7671C149.601 61.0301 149.519 61.3348 149.527 61.6439C149.523 61.7883 149.482 61.9293 149.409 62.0541C149.372 62.1116 149.323 62.1605 149.266 62.1976C149.208 62.2348 149.144 62.2593 149.076 62.2694L147.538 62.5156C147.466 62.5286 147.392 62.5272 147.321 62.5113C147.249 62.4955 147.182 62.4655 147.122 62.4233C147.062 62.3852 147.011 62.3332 146.975 62.2717C146.938 62.2102 146.917 62.1409 146.912 62.0695C146.848 61.5923 146.883 61.107 147.015 60.644C147.135 60.2341 147.308 59.8412 147.527 59.4749C147.743 59.1233 147.99 58.7921 148.266 58.4853C148.538 58.1776 148.779 57.8905 149.014 57.6136C149.225 57.3663 149.407 57.0963 149.558 56.8086C149.691 56.5609 149.74 56.2763 149.696 55.9984C149.658 55.7538 149.561 55.5221 149.413 55.323C149.266 55.1239 149.073 54.9634 148.85 54.8549C148.299 54.5887 147.675 54.5129 147.076 54.6396C146.534 54.7189 146.029 54.964 145.632 55.3413C145.234 55.7186 144.963 56.2096 144.856 56.747C144.826 56.8763 144.774 56.9994 144.702 57.1111C144.611 57.2084 144.487 57.2687 144.353 57.2803L142.733 57.5418C142.619 57.5636 142.501 57.5396 142.405 57.4751C142.356 57.4412 142.314 57.3971 142.283 57.3458C142.252 57.2945 142.233 57.2372 142.226 57.1777C142.177 56.6689 142.257 56.1561 142.456 55.6856C142.659 55.1381 142.958 54.6311 143.338 54.1884C143.755 53.7035 144.247 53.2881 144.794 52.9577C145.385 52.5994 146.04 52.3591 146.722 52.2501ZM149.368 63.4539C149.439 63.4427 149.511 63.4455 149.58 63.4623C149.65 63.479 149.716 63.5093 149.773 63.5513C149.834 63.5911 149.885 63.6431 149.924 63.7041C149.963 63.7651 149.988 63.8336 149.999 63.9051L150.286 65.6639C150.308 65.8066 150.273 65.9523 150.189 66.0694C150.104 66.1865 149.977 66.2655 149.835 66.2895L148.117 66.5715C147.975 66.5935 147.829 66.5585 147.712 66.4741C147.653 66.4338 147.602 66.3815 147.564 66.3206C147.526 66.2596 147.501 66.1914 147.492 66.1203L147.204 64.3615C147.191 64.2909 147.193 64.2184 147.21 64.1486C147.227 64.0788 147.258 64.0134 147.302 63.9564C147.342 63.8969 147.394 63.8466 147.455 63.8086C147.516 63.7706 147.585 63.7459 147.656 63.7359L149.368 63.4539Z" fill="url(#paint5_linear_282_1432)"/>
<g opacity="0.2">
<path opacity="0.2" d="M146.722 52.2501C147.34 52.151 147.968 52.1389 148.589 52.2142C149.182 52.2847 149.758 52.4582 150.291 52.7269C150.799 52.9904 151.246 53.3572 151.604 53.8037C151.925 54.2407 152.152 54.7403 152.268 55.2703C152.385 55.8002 152.389 56.3486 152.281 56.8803C152.183 57.289 152.026 57.6812 151.814 58.0442C151.61 58.3974 151.373 58.7304 151.106 59.039C150.845 59.3467 150.594 59.6389 150.363 59.9209C150.137 60.1837 149.936 60.4669 149.763 60.767C149.601 61.03 149.519 61.3348 149.527 61.6438C149.523 61.7882 149.482 61.9293 149.409 62.054C149.372 62.1115 149.323 62.1605 149.266 62.1976C149.208 62.2347 149.144 62.2592 149.076 62.2694L147.538 62.5155C147.466 62.5285 147.392 62.5271 147.321 62.5113C147.249 62.4954 147.182 62.4655 147.122 62.4232C147.062 62.3851 147.011 62.3332 146.975 62.2717C146.938 62.2101 146.917 62.1408 146.912 62.0694C146.848 61.5923 146.883 61.1069 147.015 60.6439C147.135 60.234 147.308 59.8412 147.527 59.4748C147.743 59.1233 147.99 58.792 148.266 58.4852C148.538 58.1776 148.779 57.8904 149.014 57.6135C149.225 57.3662 149.407 57.0962 149.558 56.8085C149.691 56.5608 149.74 56.2763 149.696 55.9983C149.658 55.7537 149.561 55.522 149.413 55.3229C149.266 55.1239 149.073 54.9633 148.85 54.8549C148.299 54.5886 147.675 54.5128 147.076 54.6395C146.534 54.7188 146.029 54.9639 145.632 55.3412C145.234 55.7185 144.963 56.2095 144.856 56.747C144.826 56.8762 144.774 56.9994 144.702 57.111C144.611 57.2084 144.487 57.2686 144.353 57.2802L142.733 57.5417C142.619 57.5635 142.501 57.5396 142.405 57.4751C142.356 57.4412 142.314 57.3971 142.283 57.3458C142.252 57.2945 142.233 57.2372 142.226 57.1777C142.177 56.6689 142.257 56.156 142.456 55.6856C142.659 55.1381 142.958 54.6311 143.338 54.1883C143.755 53.7035 144.247 53.2881 144.794 52.9577C145.385 52.5993 146.04 52.359 146.722 52.2501ZM149.368 63.4538C149.439 63.4426 149.511 63.4455 149.58 63.4622C149.65 63.4789 149.716 63.5092 149.773 63.5513C149.834 63.591 149.885 63.6431 149.924 63.704C149.963 63.765 149.988 63.8335 149.999 63.9051L150.286 65.6638C150.308 65.8065 150.273 65.9522 150.189 66.0693C150.104 66.1864 149.977 66.2655 149.835 66.2894L148.117 66.5714C147.975 66.5935 147.829 66.5585 147.712 66.474C147.653 66.4338 147.602 66.3815 147.564 66.3205C147.526 66.2596 147.501 66.1913 147.492 66.1202L147.204 64.3614C147.191 64.2909 147.193 64.2183 147.21 64.1486C147.227 64.0788 147.258 64.0133 147.302 63.9564C147.342 63.8969 147.394 63.8465 147.455 63.8085C147.516 63.7705 147.585 63.7458 147.656 63.7359L149.368 63.4538Z" fill="black"/>
</g>
<path d="M161.223 55.0138C161.293 55.0624 161.352 55.1248 161.397 55.1971C161.442 55.2694 161.472 55.3501 161.485 55.4343C161.501 55.5177 161.5 55.6036 161.481 55.6866C161.463 55.7695 161.427 55.8477 161.377 55.9163L160.157 57.634C160.108 57.7039 160.046 57.7632 159.973 57.8082C159.901 57.8531 159.82 57.8829 159.736 57.8955C159.653 57.9119 159.567 57.9107 159.484 57.8922C159.401 57.8736 159.323 57.8381 159.254 57.7879L157.572 56.5931C157.502 56.5452 157.443 56.4829 157.399 56.4104C157.355 56.3379 157.326 56.2569 157.316 56.1727C157.3 56.0892 157.301 56.0034 157.319 55.9204C157.338 55.8374 157.373 55.7592 157.424 55.6907L158.659 53.9729C158.759 53.8337 158.91 53.7395 159.079 53.7107C159.248 53.6819 159.421 53.7208 159.562 53.8191L161.223 55.0138ZM168.32 43.3793C168.933 43.8091 169.479 44.3275 169.94 44.9176C170.39 45.4665 170.737 46.0918 170.966 46.7635C171.178 47.4073 171.25 48.0893 171.176 48.7633C171.089 49.482 170.817 50.1658 170.386 50.7477C170.066 51.2182 169.655 51.6193 169.176 51.927C168.755 52.1911 168.297 52.3915 167.817 52.5218C167.35 52.644 166.873 52.7263 166.392 52.7679L165.028 52.891C164.619 52.9237 164.214 52.9941 163.818 53.1012C163.452 53.1842 163.118 53.3691 162.854 53.6345C162.734 53.7558 162.583 53.8411 162.418 53.8806C162.339 53.9032 162.256 53.9066 162.176 53.8906C162.096 53.8745 162.02 53.8395 161.956 53.7883L160.469 52.7321C160.327 52.6306 160.23 52.4781 160.198 52.3065C160.178 52.2233 160.179 52.1368 160.2 52.0539C160.22 51.9711 160.26 51.8942 160.316 51.8296C160.663 51.3789 161.097 51.0023 161.592 50.722C162.038 50.4785 162.514 50.2941 163.008 50.1734C163.484 50.0578 163.969 49.984 164.459 49.9529C164.941 49.9221 165.392 49.8862 165.812 49.8452C166.197 49.8112 166.577 49.7356 166.945 49.6196C167.268 49.5123 167.545 49.3013 167.735 49.0197C167.907 48.7818 168.018 48.5061 168.06 48.216C168.102 47.9258 168.073 47.6299 167.976 47.3532C167.734 46.6698 167.27 46.0869 166.658 45.697C165.551 44.9073 164.342 44.8817 163.033 45.6201C162.901 45.704 162.755 45.763 162.602 45.7944C162.523 45.8 162.443 45.7897 162.367 45.7642C162.291 45.7386 162.221 45.6984 162.161 45.6457L160.582 44.5228C160.525 44.4848 160.476 44.4358 160.438 44.3785C160.4 44.3212 160.374 44.257 160.362 44.1895C160.349 44.1197 160.352 44.0481 160.368 43.9793C160.385 43.9105 160.416 43.8459 160.459 43.7895C160.832 43.3121 161.316 42.9335 161.869 42.6871C162.498 42.4024 163.171 42.2289 163.859 42.1743C164.615 42.1111 165.378 42.1717 166.115 42.3538C166.911 42.5456 167.66 42.8942 168.32 43.3793Z" fill="url(#paint6_linear_282_1432)"/>
<g opacity="0.6">
<path opacity="0.6" d="M161.223 55.0138C161.293 55.0624 161.352 55.1248 161.397 55.1971C161.442 55.2694 161.472 55.3501 161.485 55.4343C161.501 55.5177 161.5 55.6036 161.481 55.6866C161.463 55.7695 161.427 55.8477 161.377 55.9163L160.157 57.634C160.108 57.7039 160.046 57.7632 159.973 57.8082C159.901 57.8531 159.82 57.8829 159.736 57.8955C159.653 57.9119 159.567 57.9107 159.484 57.8922C159.401 57.8736 159.323 57.8381 159.254 57.7879L157.572 56.5931C157.502 56.5452 157.443 56.4829 157.399 56.4104C157.355 56.3379 157.326 56.2569 157.316 56.1727C157.3 56.0892 157.301 56.0034 157.319 55.9204C157.338 55.8374 157.373 55.7592 157.424 55.6907L158.659 53.9729C158.759 53.8337 158.91 53.7395 159.079 53.7107C159.248 53.6819 159.421 53.7208 159.562 53.8191L161.223 55.0138ZM168.32 43.3793C168.933 43.8091 169.479 44.3275 169.94 44.9176C170.39 45.4665 170.737 46.0918 170.966 46.7635C171.178 47.4073 171.25 48.0893 171.176 48.7633C171.089 49.482 170.817 50.1658 170.386 50.7477C170.066 51.2182 169.655 51.6193 169.176 51.927C168.755 52.1911 168.297 52.3915 167.817 52.5218C167.35 52.644 166.873 52.7263 166.392 52.7679L165.028 52.891C164.619 52.9237 164.214 52.9941 163.818 53.1012C163.452 53.1842 163.118 53.3691 162.854 53.6345C162.734 53.7558 162.583 53.8411 162.418 53.8806C162.339 53.9032 162.256 53.9066 162.176 53.8906C162.096 53.8745 162.02 53.8395 161.956 53.7883L160.469 52.7321C160.327 52.6306 160.23 52.4781 160.198 52.3065C160.178 52.2233 160.179 52.1368 160.2 52.0539C160.22 51.9711 160.26 51.8942 160.316 51.8296C160.663 51.3789 161.097 51.0023 161.592 50.722C162.038 50.4785 162.514 50.2941 163.008 50.1734C163.484 50.0578 163.969 49.984 164.459 49.9529C164.941 49.9221 165.392 49.8862 165.812 49.8452C166.197 49.8112 166.577 49.7356 166.945 49.6196C167.268 49.5123 167.545 49.3013 167.735 49.0197C167.907 48.7818 168.018 48.5061 168.06 48.216C168.102 47.9258 168.073 47.6299 167.976 47.3532C167.734 46.6698 167.27 46.0869 166.658 45.697C165.551 44.9073 164.342 44.8817 163.033 45.6201C162.901 45.704 162.755 45.763 162.602 45.7944C162.523 45.8 162.443 45.7897 162.367 45.7642C162.291 45.7386 162.221 45.6984 162.161 45.6457L160.582 44.5228C160.525 44.4848 160.476 44.4358 160.438 44.3785C160.4 44.3212 160.374 44.257 160.362 44.1895C160.349 44.1197 160.352 44.0481 160.368 43.9793C160.385 43.9105 160.416 43.8459 160.459 43.7895C160.832 43.3121 161.316 42.9335 161.869 42.6871C162.498 42.4024 163.171 42.2289 163.859 42.1743C164.615 42.1111 165.378 42.1717 166.115 42.3538C166.911 42.5456 167.66 42.8942 168.32 43.3793Z" fill="url(#paint7_linear_282_1432)"/>
</g>
<path d="M35.9805 150.134C36.7435 149.644 37.572 149.265 38.4413 149.007C39.268 148.755 40.1332 148.651 40.9961 148.702C41.8242 148.754 42.6315 148.983 43.363 149.374C44.1377 149.801 44.7886 150.422 45.2525 151.175C45.6397 151.753 45.9098 152.401 46.0474 153.083C46.1492 153.682 46.1665 154.292 46.0986 154.895C46.0271 155.483 45.9034 156.064 45.7289 156.63L45.2462 158.231C45.0978 158.71 44.9943 159.202 44.937 159.701C44.8802 160.147 44.9487 160.6 45.1348 161.009C45.2161 161.2 45.2434 161.409 45.2135 161.614C45.2015 161.713 45.167 161.808 45.1127 161.892C45.0584 161.976 44.9857 162.046 44.9001 162.098L43.0271 163.302C42.9378 163.361 42.8376 163.402 42.7325 163.421C42.6274 163.441 42.5194 163.44 42.4148 163.417C42.3121 163.402 42.2145 163.362 42.1298 163.302C42.0452 163.242 41.9759 163.163 41.9275 163.071C41.5726 162.473 41.3417 161.809 41.2484 161.12C41.1742 160.502 41.1801 159.876 41.2659 159.26C41.3554 158.665 41.4948 158.078 41.6826 157.507C41.858 156.958 42.0406 156.417 42.1762 155.924C42.31 155.472 42.3956 155.007 42.4314 154.538C42.4659 154.128 42.3634 153.719 42.14 153.375C41.9501 153.072 41.6895 152.819 41.3806 152.638C41.0717 152.458 40.7236 152.355 40.3662 152.338C39.4792 152.303 38.606 152.566 37.8857 153.085C36.49 153.983 35.9144 155.338 36.159 157.149C36.1956 157.337 36.1977 157.53 36.1651 157.719C36.1028 157.906 35.9693 158.062 35.7935 158.152L33.8011 159.433C33.6623 159.527 33.4917 159.563 33.3266 159.533C33.2383 159.516 33.1547 159.481 33.0813 159.429C33.0078 159.378 32.9464 159.311 32.9011 159.234C32.5335 158.592 32.3264 157.872 32.2975 157.133C32.2526 156.288 32.3583 155.442 32.6096 154.634C32.8826 153.748 33.2965 152.913 33.8354 152.159C34.4121 151.351 35.1407 150.664 35.9805 150.134ZM45.9684 163.496C46.1455 163.385 46.359 163.348 46.5631 163.393C46.7673 163.437 46.9459 163.56 47.0608 163.735L48.455 165.897C48.5165 165.984 48.5589 166.084 48.5794 166.189C48.5998 166.293 48.5979 166.401 48.5737 166.505C48.5553 166.608 48.5156 166.706 48.4573 166.792C48.399 166.879 48.3233 166.952 48.235 167.007L46.0834 168.369C45.9965 168.431 45.8971 168.474 45.7921 168.495C45.687 168.515 45.5788 168.513 45.4748 168.487C45.3728 168.467 45.2761 168.427 45.1904 168.368C45.1047 168.309 45.032 168.233 44.9766 168.145L43.586 165.979C43.475 165.802 43.4374 165.588 43.4812 165.384C43.525 165.179 43.6467 165 43.8206 164.883L45.9684 163.496Z" fill="url(#paint8_linear_282_1432)"/>
<path d="M54.9891 165.126C55.3535 164.618 55.7872 164.163 56.2777 163.775C56.7453 163.404 57.2742 163.117 57.8405 162.927C58.3851 162.752 58.9604 162.693 59.5294 162.753C60.0661 162.833 60.5803 163.024 61.0387 163.314C61.497 163.604 61.8895 163.987 62.1906 164.439C62.4121 164.796 62.5799 165.184 62.6886 165.59C62.7957 165.983 62.8654 166.386 62.8968 166.793C62.9311 167.195 62.9618 167.579 62.9996 167.941C63.0271 168.287 63.0868 168.629 63.1779 168.963C63.2503 169.264 63.409 169.537 63.6345 169.748C63.7339 169.853 63.8055 169.981 63.8428 170.121C63.8575 170.187 63.8578 170.257 63.8437 170.324C63.8296 170.391 63.8014 170.454 63.761 170.509L62.8527 171.775C62.8114 171.835 62.7584 171.886 62.6969 171.926C62.6355 171.965 62.5667 171.992 62.4947 172.005C62.425 172.021 62.3525 172.02 62.2831 172.003C62.2136 171.985 62.1493 171.952 62.0955 171.905C61.7113 171.615 61.3912 171.248 61.1554 170.828C60.9493 170.454 60.7916 170.055 60.6863 169.641C60.5885 169.24 60.5272 168.832 60.5034 168.42C60.4763 168.01 60.4421 167.637 60.4115 167.274C60.3842 166.951 60.3208 166.631 60.2226 166.322C60.1407 166.053 59.9728 165.818 59.7447 165.653C59.5439 165.508 59.311 165.414 59.0659 165.378C58.8209 165.343 58.5708 165.367 58.3371 165.449C57.7599 165.653 57.2667 166.042 56.935 166.557C56.6095 166.998 56.4283 167.529 56.4164 168.077C56.4044 168.624 56.5623 169.163 56.8682 169.617C56.9389 169.73 56.9897 169.853 57.0185 169.983C57.0232 170.116 56.9785 170.247 56.8931 170.35L55.938 171.684C55.8732 171.781 55.7732 171.847 55.6596 171.87C55.6007 171.882 55.5401 171.88 55.4819 171.866C55.4237 171.852 55.3692 171.825 55.322 171.788C54.9267 171.464 54.6184 171.047 54.4249 170.574C54.1789 170.045 54.0291 169.476 53.9827 168.894C53.932 168.256 53.9832 167.614 54.1341 166.993C54.2957 166.321 54.586 165.687 54.9891 165.126ZM64.8079 171.135C64.8497 171.077 64.9025 171.028 64.9633 170.991C65.0241 170.953 65.0917 170.928 65.1623 170.916C65.2331 170.901 65.3062 170.902 65.3769 170.917C65.4475 170.932 65.5142 170.962 65.5724 171.005L67.0235 172.04C67.1405 172.124 67.2193 172.252 67.243 172.394C67.2667 172.537 67.2333 172.683 67.15 172.801L66.1408 174.219C66.0561 174.336 65.9288 174.414 65.7864 174.438C65.716 174.452 65.6434 174.451 65.5734 174.435C65.5033 174.419 65.4374 174.388 65.38 174.345L63.9289 173.311C63.8696 173.27 63.8194 173.218 63.7817 173.157C63.744 173.096 63.7195 173.028 63.7098 172.957C63.6959 172.886 63.697 172.814 63.7129 172.743C63.7288 172.673 63.7593 172.608 63.8023 172.55L64.8079 171.135Z" fill="url(#paint9_linear_282_1432)"/>
<g opacity="0.2">
<path opacity="0.2" d="M54.9891 165.126C55.3535 164.618 55.7872 164.163 56.2777 163.775C56.7453 163.404 57.2742 163.117 57.8405 162.927C58.3851 162.752 58.9604 162.693 59.5294 162.753C60.0661 162.833 60.5803 163.024 61.0387 163.314C61.497 163.604 61.8895 163.987 62.1906 164.439C62.4121 164.796 62.5799 165.184 62.6886 165.59C62.7957 165.983 62.8654 166.386 62.8968 166.793C62.9311 167.195 62.9618 167.579 62.9996 167.941C63.0271 168.287 63.0868 168.629 63.1779 168.963C63.2503 169.264 63.409 169.537 63.6345 169.748C63.7339 169.853 63.8055 169.981 63.8428 170.121C63.8575 170.187 63.8578 170.257 63.8437 170.324C63.8296 170.391 63.8014 170.454 63.761 170.509L62.8527 171.775C62.8114 171.835 62.7584 171.886 62.6969 171.926C62.6355 171.965 62.5667 171.992 62.4947 172.005C62.425 172.021 62.3525 172.02 62.2831 172.003C62.2136 171.985 62.1493 171.952 62.0955 171.905C61.7113 171.615 61.3912 171.248 61.1554 170.828C60.9493 170.454 60.7916 170.055 60.6863 169.641C60.5885 169.24 60.5272 168.832 60.5034 168.42C60.4763 168.01 60.4421 167.637 60.4115 167.274C60.3842 166.951 60.3208 166.631 60.2226 166.322C60.1407 166.053 59.9728 165.818 59.7447 165.653C59.5439 165.508 59.311 165.414 59.0659 165.378C58.8209 165.343 58.5708 165.367 58.3371 165.449C57.7599 165.653 57.2667 166.042 56.935 166.557C56.6095 166.998 56.4283 167.529 56.4164 168.077C56.4044 168.624 56.5623 169.163 56.8682 169.617C56.9389 169.73 56.9897 169.853 57.0185 169.983C57.0232 170.116 56.9785 170.247 56.8931 170.35L55.938 171.684C55.8732 171.781 55.7732 171.847 55.6596 171.87C55.6007 171.882 55.5401 171.88 55.4819 171.866C55.4237 171.852 55.3692 171.825 55.322 171.788C54.9267 171.464 54.6184 171.047 54.4249 170.574C54.1789 170.045 54.0291 169.476 53.9827 168.894C53.932 168.256 53.9832 167.614 54.1341 166.993C54.2957 166.321 54.586 165.687 54.9891 165.126ZM64.8079 171.135C64.8497 171.077 64.9025 171.028 64.9633 170.991C65.0241 170.953 65.0917 170.928 65.1623 170.916C65.2331 170.901 65.3062 170.902 65.3769 170.917C65.4475 170.932 65.5142 170.962 65.5724 171.005L67.0235 172.04C67.1405 172.124 67.2193 172.252 67.243 172.394C67.2667 172.537 67.2333 172.683 67.15 172.801L66.1408 174.219C66.0561 174.336 65.9288 174.414 65.7864 174.438C65.716 174.452 65.6434 174.451 65.5734 174.435C65.5033 174.419 65.4374 174.388 65.38 174.345L63.9289 173.311C63.8696 173.27 63.8194 173.218 63.7817 173.157C63.744 173.096 63.7195 173.028 63.7098 172.957C63.6959 172.886 63.697 172.814 63.7129 172.743C63.7288 172.673 63.7593 172.608 63.8023 172.55L64.8079 171.135Z" fill="black"/>
</g>
<path d="M67.1616 156.775C67.2453 156.759 67.3313 156.761 67.4143 156.78C67.4973 156.799 67.5756 156.835 67.6443 156.885C67.715 156.932 67.7752 156.993 67.8211 157.065C67.8669 157.136 67.8975 157.217 67.9107 157.301L68.2713 159.377C68.2867 159.461 68.2849 159.547 68.2659 159.63C68.2469 159.713 68.2112 159.791 68.1609 159.859C68.1138 159.93 68.0525 159.99 67.9809 160.036C67.9094 160.082 67.8291 160.113 67.7451 160.126L65.7125 160.479C65.6292 160.495 65.5433 160.493 65.4608 160.473C65.3782 160.454 65.3007 160.417 65.2334 160.365C65.1627 160.318 65.1025 160.257 65.0567 160.185C65.0108 160.113 64.9803 160.033 64.967 159.949L64.6173 157.862C64.5888 157.693 64.628 157.52 64.7265 157.38C64.825 157.239 64.9748 157.144 65.1435 157.113L67.1616 156.775ZM63.8965 143.543C64.6334 143.411 65.386 143.388 66.1297 143.476C66.836 143.543 67.5246 143.737 68.1625 144.047C68.7695 144.35 69.3043 144.779 69.7306 145.306C70.1798 145.874 70.4737 146.549 70.5837 147.264C70.6926 147.823 70.6876 148.397 70.5692 148.954C70.4601 149.439 70.2801 149.905 70.0348 150.337C69.7925 150.755 69.5152 151.152 69.2059 151.523L68.333 152.578C68.0682 152.892 67.833 153.229 67.6302 153.586C67.4319 153.903 67.3279 154.271 67.3302 154.646C67.3323 154.816 67.2865 154.983 67.1981 155.128C67.1587 155.2 67.1027 155.261 67.0348 155.307C66.9668 155.353 66.889 155.382 66.8076 155.391L65.0106 155.703C64.8384 155.733 64.6616 155.694 64.517 155.597C64.4445 155.552 64.3835 155.49 64.3391 155.417C64.2947 155.344 64.2681 155.262 64.2614 155.177C64.1859 154.613 64.2242 154.04 64.3739 153.491C64.5149 153.002 64.7189 152.535 64.9807 152.099C65.2341 151.68 65.5235 151.283 65.8459 150.914C66.1634 150.55 66.4556 150.204 66.7225 149.877C66.9693 149.579 67.1831 149.256 67.3602 148.913C67.5108 148.609 67.5566 148.263 67.4902 147.93C67.4419 147.641 67.3246 147.367 67.1481 147.133C66.9716 146.899 66.7412 146.711 66.4765 146.585C65.8204 146.276 65.0799 146.195 64.3725 146.355C63.032 146.586 62.1629 147.426 61.7654 148.875C61.7322 149.028 61.6714 149.173 61.586 149.304C61.5338 149.364 61.4702 149.414 61.3988 149.45C61.3274 149.485 61.2496 149.507 61.1699 149.512L59.2605 149.843C59.1933 149.857 59.124 149.857 59.0566 149.844C58.9893 149.83 58.9254 149.804 58.8686 149.765C58.8104 149.725 58.7612 149.673 58.7241 149.612C58.6871 149.552 58.6629 149.484 58.6532 149.414C58.5765 148.813 58.6486 148.203 58.8632 147.637C59.1035 146.99 59.4543 146.39 59.8998 145.863C60.3878 145.281 60.9674 144.782 61.6158 144.387C62.3123 143.957 63.0877 143.67 63.8965 143.543Z" fill="url(#paint10_linear_282_1432)"/>
<g opacity="0.6">
<path opacity="0.6" d="M67.1615 156.775C67.2452 156.759 67.3312 156.761 67.4142 156.78C67.4972 156.799 67.5755 156.835 67.6442 156.885C67.7149 156.932 67.7751 156.993 67.8209 157.065C67.8668 157.137 67.8973 157.217 67.9106 157.301L68.2712 159.377C68.2866 159.461 68.2848 159.547 68.2658 159.63C68.2468 159.713 68.2111 159.791 68.1608 159.86C68.1137 159.93 68.0524 159.99 67.9808 160.036C67.9092 160.082 67.8289 160.113 67.745 160.126L65.7124 160.479C65.629 160.495 65.5432 160.493 65.4606 160.474C65.378 160.454 65.3006 160.417 65.2333 160.365C65.1626 160.318 65.1024 160.257 65.0566 160.185C65.0107 160.114 64.9802 160.033 64.9669 159.949L64.6172 157.862C64.5887 157.693 64.6279 157.52 64.7264 157.38C64.8249 157.239 64.9747 157.144 65.1433 157.113L67.1615 156.775ZM63.8963 143.544C64.6333 143.411 65.3859 143.388 66.1295 143.476C66.8359 143.543 67.5245 143.737 68.1624 144.047C68.7694 144.35 69.3042 144.779 69.7305 145.306C70.1796 145.874 70.4736 146.549 70.5836 147.264C70.6924 147.823 70.6875 148.397 70.5691 148.954C70.46 149.439 70.2799 149.905 70.0347 150.338C69.7924 150.755 69.5151 151.152 69.2058 151.523L68.3329 152.578C68.0681 152.892 67.8329 153.229 67.6301 153.586C67.4318 153.903 67.3278 154.271 67.3301 154.646C67.3322 154.816 67.2864 154.983 67.198 155.128C67.1586 155.2 67.1026 155.261 67.0347 155.307C66.9667 155.353 66.8888 155.382 66.8075 155.391L65.0104 155.703C64.8383 155.733 64.6615 155.695 64.5169 155.597C64.4443 155.552 64.3834 155.49 64.339 155.417C64.2946 155.345 64.268 155.262 64.2613 155.177C64.1858 154.613 64.224 154.04 64.3738 153.491C64.5148 153.003 64.7188 152.535 64.9806 152.099C65.2339 151.68 65.5234 151.283 65.8457 150.914C66.1633 150.55 66.4555 150.204 66.7224 149.877C66.9692 149.579 67.183 149.256 67.3601 148.913C67.5107 148.609 67.5564 148.263 67.49 147.93C67.4418 147.641 67.3245 147.368 67.148 147.133C66.9715 146.899 66.7411 146.711 66.4763 146.585C65.8203 146.277 65.0798 146.195 64.3724 146.355C63.0318 146.586 62.1628 147.426 61.7653 148.875C61.7321 149.028 61.6713 149.173 61.5858 149.304C61.5337 149.364 61.4701 149.414 61.3986 149.45C61.3272 149.485 61.2494 149.507 61.1698 149.512L59.2604 149.843C59.1932 149.857 59.1238 149.857 59.0565 149.844C58.9892 149.83 58.9252 149.804 58.8685 149.765C58.8103 149.725 58.7611 149.673 58.724 149.612C58.6869 149.552 58.6628 149.484 58.6531 149.414C58.5764 148.813 58.6485 148.203 58.863 147.637C59.1034 146.99 59.4541 146.39 59.8997 145.863C60.3877 145.281 60.9673 144.783 61.6157 144.387C62.3122 143.957 63.0876 143.67 63.8963 143.544Z" fill="url(#paint11_linear_282_1432)"/>
</g>
<path d="M117.71 100.639H99.4919V56.5012C99.4919 52.6676 101.015 48.991 103.726 46.2802C106.436 43.5694 110.113 42.0465 113.947 42.0465H115.628C119.462 42.0465 123.139 43.5694 125.849 46.2802C128.56 48.991 130.083 52.6676 130.083 56.5012V88.2922C130.076 91.5693 128.77 94.7098 126.45 97.0246C124.131 99.3394 120.987 100.639 117.71 100.639Z" fill="#2F2F2F"/>
<path d="M97.7178 206.898C97.3956 208.727 97.2241 210.579 97.205 212.436C97.1384 215.8 96.5231 216.995 96.441 219.753C96.3436 222.907 96.8923 224.086 98.169 225.86C99.4458 227.634 102.784 229.239 104.23 226.245C105.676 223.25 105.466 221.286 105.009 218.194C104.543 214.995 104.496 213.226 104.209 210.79C103.973 208.642 103.697 207.006 103.697 207.006L97.7178 206.898Z" fill="black"/>
<path d="M107.265 184.558L96.1897 184.358C96.3538 191.752 97.528 199.961 97.728 206.919C97.769 208.226 97.6972 217.066 98.1895 219.738C98.933 223.778 103.722 223.23 103.979 220.815C104.235 218.4 103.671 208.078 103.686 207.011C103.64 202.56 105.737 195.049 106.819 187.06C106.865 186.675 107.214 184.942 107.265 184.558Z" fill="#FFA8A7"/>
<path d="M121.495 201.146C121.495 201.146 121.059 200.91 120.982 201.376C120.874 201.93 120.71 203.074 120.469 203.986C120.151 205.253 119.884 207.34 120.074 208.375C120.264 209.411 122.674 210.734 124.238 211.216C126.165 211.811 127.923 212.857 129.365 214.267C130.904 215.723 134.252 217.097 136.544 217.082C139.236 217.082 141.113 216.185 142 214.744C142.887 213.303 141.19 213.129 138.113 211.155L135.729 209.616C130.852 206.432 129.063 204.73 127.694 201.545L121.495 201.146Z" fill="black"/>
<path d="M127.735 199.171C127.653 196.884 129.232 177.446 129.232 177.446L118.715 182.24C120.966 195.685 121.448 198.859 121.484 201.058C121.438 201.243 121.419 201.433 121.428 201.622C121.428 204.232 124.386 205.642 126.684 207.386C128.636 208.916 130.717 210.274 132.903 211.447C134.575 212.283 137.969 212.36 138.39 211.288C135.59 209.15 131.519 205.95 129.294 203.509C128.206 202.361 127.817 201.463 127.735 199.171Z" fill="#FFA8A7"/>
<path d="M100.728 112.407C96.6872 121.273 96.6872 128.133 97.3589 139.45C97.9537 149.833 98.9433 158.986 98.9433 158.986C98.7895 160.827 96.2308 164.421 95.8975 172.564C95.5899 180.173 96.4103 189.849 96.4103 189.849C96.4103 189.849 102.158 193.033 106.409 189.818C106.409 189.818 110.511 170.236 111.711 160.709C112.737 152.397 114.582 141.778 114.582 141.778L118.464 160.653C117.626 163.331 117.019 166.075 116.649 168.857C116.105 174.461 119.243 185.465 119.243 185.465C119.243 185.465 125.181 187.234 128.806 184.019C128.806 184.019 130.16 166.129 130.668 159.381C131.345 150.341 129.919 125.872 128.806 112.915L100.728 112.407Z" fill="black"/>
<path d="M114.593 141.763L116.187 127.539C116.187 127.539 123.335 126.585 126.576 123.539C125.648 124.99 124.413 126.219 122.957 127.139C121.501 128.059 119.86 128.647 118.151 128.862L115.844 142.096L118.464 160.653L114.593 141.763Z" fill="black"/>
<path d="M143.538 108.91C143.833 106.315 143.963 103.703 143.928 101.091C143.769 98.8345 143.364 98.4653 140.21 94.4709C135.954 89.0716 132.319 84.2158 128.473 79.3907C125.725 75.945 122.833 75.4168 120.023 75.5707C118.054 75.6783 121.899 85.149 123.833 90.7534L134.872 102.639C135.214 103.108 135.371 103.687 135.313 104.265L134.647 114.376L137.954 118.806C137.954 118.806 142.964 114.489 143.538 108.91Z" fill="#FFA8A7"/>
<path d="M109.378 75.8784C107.24 76.0271 103.353 76.3911 103.353 76.3911C101.112 77.6423 100.543 78.6729 100.128 81.6469C99.9484 82.9185 100.984 86.2976 101.871 91.1022L103.553 100.009L103.368 104.429C102.497 107.126 100.523 110.474 98.7793 115.412C107.342 120.191 114.521 120.37 121.033 119.514C125.997 118.873 128.627 117.673 129.504 116.484C129.319 111.607 128.991 108.592 128.889 103.496C128.853 101.357 128.981 99.1935 129.068 96.7323C132.396 93.9941 132.437 89.4408 130.606 86.4771C126.386 79.642 122.279 75.34 119.561 75.5605L109.378 75.8784Z" fill="url(#paint12_linear_282_1432)"/>
<path opacity="0.6" d="M109.378 75.8784C107.24 76.0271 103.353 76.3911 103.353 76.3911C101.112 77.6423 100.543 78.6729 100.128 81.6469C99.9484 82.9185 100.984 86.2976 101.871 91.1022L103.553 100.009L103.368 104.429C102.497 107.126 100.523 110.474 98.7793 115.412C107.342 120.191 114.521 120.37 121.033 119.514C125.997 118.873 128.627 117.673 129.504 116.484C129.319 111.607 128.991 108.592 128.889 103.496C128.853 101.357 128.981 99.1935 129.068 96.7323C132.396 93.9941 132.437 89.4408 130.606 86.4771C126.386 79.642 122.279 75.34 119.561 75.5605L109.378 75.8784Z" fill="url(#paint13_linear_282_1432)"/>
<path opacity="0.1" d="M122.438 96.7988C122.438 96.7988 118.531 99.8344 114.065 98.2499C112.81 97.8548 111.68 97.1426 110.781 96.1823C109.883 95.2221 109.248 94.0462 108.937 92.7686C108.937 92.7686 108.465 97.8705 114.09 99.6088C119.541 101.285 122.438 96.7988 122.438 96.7988Z" fill="black"/>
<path d="M127.74 61.8749C127.571 69.2791 125.176 71.1046 123.966 71.6173C122.756 72.1301 120.438 71.8224 118.182 71.4481V75.9194C118.182 75.9194 120.787 78.6472 120.592 80.6829C120.397 82.7186 116.49 82.9493 113.577 80.9547C111.97 79.8508 110.517 78.5387 109.255 77.0526C109.013 76.7659 108.88 76.4024 108.881 76.0271V65.5668C108.881 65.5668 107.645 66.8743 105.46 65.377C104.989 65.0763 104.586 64.6807 104.275 64.2155C103.965 63.7503 103.755 63.2257 103.659 62.6749C103.562 62.1242 103.582 61.5594 103.715 61.0165C103.849 60.4736 104.094 59.9644 104.435 59.5213C105.389 58.3984 107.809 58.3215 108.968 60.0341C109.624 61.3109 109.711 62.5979 110.445 62.0851C112.393 60.6802 111.347 57.4703 113.701 55.932C114.473 55.5289 115.275 55.1861 116.1 54.9065C120.3 53.4554 123.94 52.235 124.817 49.3636C126.468 50.3071 127.945 53.1426 127.74 61.8749Z" fill="#FFA8A7"/>
<path d="M119.459 68.4894C119.997 68.4894 120.433 68.0533 120.433 67.5152C120.433 66.9771 119.997 66.541 119.459 66.541C118.921 66.541 118.484 66.9771 118.484 67.5152C118.484 68.0533 118.921 68.4894 119.459 68.4894Z" fill="#B16668"/>
<path d="M118.813 60.7519C118.813 60.9525 118.753 61.1486 118.643 61.316C118.532 61.4833 118.375 61.6146 118.191 61.6935C118.006 61.7724 117.803 61.7955 117.605 61.7599C117.408 61.7243 117.225 61.6316 117.08 61.4932C116.935 61.3549 116.833 61.177 116.788 60.9816C116.743 60.7861 116.756 60.5817 116.826 60.3937C116.896 60.2056 117.019 60.0422 117.181 59.9236C117.343 59.805 117.536 59.7364 117.736 59.7264C117.875 59.7194 118.014 59.7408 118.144 59.7892C118.275 59.8376 118.394 59.9121 118.494 60.008C118.595 60.1039 118.675 60.2193 118.73 60.3472C118.785 60.4751 118.813 60.6128 118.813 60.7519Z" fill="black"/>
<path d="M126.581 60.8545C126.592 60.9799 126.577 61.1062 126.538 61.226C126.499 61.3458 126.437 61.4566 126.355 61.552C126.273 61.6475 126.173 61.7257 126.06 61.782C125.947 61.8383 125.825 61.8716 125.699 61.88C125.572 61.8917 125.445 61.8763 125.324 61.8349C125.204 61.7934 125.094 61.7268 125.001 61.6395C124.909 61.5522 124.836 61.4462 124.787 61.3286C124.739 61.2109 124.716 61.0842 124.72 60.957C124.707 60.8307 124.719 60.7029 124.757 60.5816C124.795 60.4603 124.857 60.348 124.94 60.2517C125.023 60.1553 125.125 60.0768 125.239 60.0211C125.353 59.9654 125.477 59.9336 125.604 59.9277C125.731 59.9217 125.858 59.9418 125.977 59.9866C126.096 60.0314 126.204 60.1 126.296 60.1882C126.387 60.2764 126.46 60.3824 126.509 60.4996C126.558 60.6168 126.582 60.7428 126.581 60.8699V60.8545Z" fill="black"/>
<path d="M117.495 63.3874C116.61 63.3874 115.762 63.0364 115.136 62.4115C114.511 61.7866 114.158 60.9389 114.157 60.0545C114.157 57.7881 116.495 57.7881 117.495 57.7881C118.495 57.7881 120.828 57.7881 120.828 60.0545C120.826 60.938 120.475 61.785 119.85 62.4097C119.225 63.0345 118.378 63.3861 117.495 63.3874ZM117.495 58.3111C115.444 58.3111 114.685 58.8239 114.685 60.0545C114.685 60.8024 114.982 61.5198 115.511 62.0486C116.04 62.5775 116.757 62.8747 117.505 62.8747C118.253 62.8747 118.97 62.5775 119.499 62.0486C120.028 61.5198 120.325 60.8024 120.325 60.0545C120.305 58.7982 119.515 58.3111 117.495 58.3111Z" fill="black"/>
<path d="M125.961 63.3874C125.076 63.3874 124.228 63.0364 123.602 62.4115C122.976 61.7866 122.624 60.9389 122.623 60.0545C122.623 57.7881 124.961 57.7881 125.961 57.7881C126.96 57.7881 129.294 57.7881 129.294 60.0545C129.292 60.938 128.941 61.785 128.316 62.4097C127.691 63.0345 126.844 63.3861 125.961 63.3874ZM125.961 58.3111C123.94 58.3111 123.151 58.8239 123.151 60.0545C123.151 60.8024 123.448 61.5198 123.977 62.0486C124.506 62.5775 125.223 62.8747 125.971 62.8747C126.719 62.8747 127.436 62.5775 127.965 62.0486C128.494 61.5198 128.791 60.8024 128.791 60.0545C128.771 58.7982 127.981 58.3111 125.961 58.3111Z" fill="black"/>
<path d="M121.346 58.9777L121.51 65.2077L124.786 64.1925L121.346 58.9777Z" fill="#F28F8F"/>
<path d="M118.177 71.4633C115.798 71.1506 110.901 69.7456 110.137 67.8074C110.444 68.7869 111.044 69.6492 111.855 70.2789C113.316 71.5351 118.177 72.9452 118.177 72.9452V71.4633Z" fill="#F28F8F"/>
<path d="M118.295 55.9525L116.121 57.2805C115.949 56.982 115.9 56.629 115.982 56.2948C116.064 55.9606 116.271 55.6709 116.562 55.4858C116.705 55.3988 116.865 55.3418 117.031 55.3181C117.197 55.2945 117.366 55.3048 117.528 55.3485C117.69 55.3921 117.841 55.4681 117.973 55.5719C118.105 55.6757 118.214 55.8052 118.295 55.9525Z" fill="black"/>
<path d="M127.14 57.4292L124.72 56.5832C124.767 56.4228 124.846 56.2736 124.952 56.145C125.059 56.0163 125.191 55.9108 125.34 55.8349C125.488 55.759 125.651 55.7144 125.818 55.7037C125.985 55.6931 126.152 55.7167 126.309 55.773C126.634 55.8896 126.901 56.1267 127.056 56.435C127.21 56.7433 127.241 57.0993 127.14 57.4292Z" fill="black"/>
<path d="M120.566 60.3212C120.532 60.3212 120.497 60.3142 120.465 60.3008C120.433 60.2873 120.404 60.2676 120.38 60.2428C120.355 60.2179 120.336 60.1885 120.323 60.1562C120.31 60.1239 120.304 60.0893 120.305 60.0545C120.305 59.6289 121.146 59.3521 121.905 59.3521C122.664 59.3521 123.151 59.6289 123.151 60.0545C123.135 60.1102 123.101 60.1593 123.055 60.1942C123.009 60.2291 122.952 60.2479 122.894 60.2479C122.836 60.2479 122.78 60.2291 122.734 60.1942C122.687 60.1593 122.654 60.1102 122.638 60.0545C122.638 60.0033 122.376 59.8751 121.92 59.8751C121.553 59.8672 121.187 59.9299 120.843 60.0597C120.843 60.0953 120.836 60.1306 120.822 60.1634C120.808 60.1962 120.787 60.2257 120.761 60.2502C120.735 60.2747 120.705 60.2937 120.671 60.3059C120.638 60.3181 120.602 60.3233 120.566 60.3212Z" fill="black"/>
<path d="M114.429 60.0955H114.398L108.537 59.5828C108.263 59.3113 107.937 59.0985 107.578 58.9572L114.459 59.593C114.528 59.602 114.591 59.6376 114.634 59.6922C114.677 59.7468 114.697 59.8161 114.69 59.8853C114.678 59.9455 114.645 59.9995 114.598 60.0379C114.55 60.0763 114.49 60.0967 114.429 60.0955Z" fill="black"/>
<path d="M90.3649 66.2076C92.2826 63.6439 93.5901 61.7108 95.3386 59.5418C96.3334 58.2958 96.9692 57.4036 97.9024 56.1268C98.5588 55.2449 98.9279 54.5014 99.6766 54.2296C100.485 53.8982 101.214 53.3983 101.815 52.7631C102.184 52.3548 102.526 51.9232 102.84 51.471C103.939 49.9917 105.245 48.6776 106.717 47.5689C108.255 46.41 109.973 45.5178 111.557 44.4154C112.501 43.7539 113.511 42.6566 112.362 41.6311C112.01 41.3344 111.588 41.1316 111.137 41.0414C108.342 40.4364 105.912 41.3952 103.179 42.0926C101.992 42.3889 100.831 42.7816 99.7073 43.2668C99.1548 43.4853 98.6368 43.7824 98.1691 44.1488C97.5152 44.808 96.9793 45.5746 96.5846 46.4152C95.3899 48.5482 92.8261 50.4557 91.0315 52.1427C88.9343 54.1168 87.0576 55.9268 84.663 58.1009C82.5094 60.0648 80.402 61.8697 78.4278 64.013C76.7921 65.7821 77.4023 67.1665 77.6177 67.6485C78.9509 70.3866 80.443 71.3711 82.2325 73.0684C85.3091 76.0065 95.9488 84.4619 99.4715 87.2564C100.228 87.8509 100.823 88.6269 101.199 89.5125L101.876 91.0765C105.896 91.8148 108.578 85.7797 105.25 78.5139C104.699 77.3389 103.857 76.3241 102.804 75.5655C98.5998 72.5043 90.3649 66.2076 90.3649 66.2076Z" fill="#FFA8A7"/>
<path d="M90.3649 66.2077C89.0853 67.7818 87.3802 68.9547 85.4526 69.5868C85.4526 69.5868 88.0164 70.2431 91.5288 67.0896L90.3649 66.2077Z" fill="#F28F8F"/>
<path d="M142.492 103.562L141.836 102.998C141.738 102.934 141.626 102.893 141.509 102.88C141.392 102.866 141.274 102.881 141.164 102.921L134.042 104.86C133.683 104.979 133.354 105.175 133.078 105.433C132.802 105.692 132.585 106.007 132.442 106.357L127.314 121.14C127.253 121.26 127.228 121.396 127.245 121.531C127.261 121.665 127.318 121.791 127.407 121.893L128.083 122.478C128.182 122.546 128.295 122.589 128.414 122.603C128.533 122.617 128.654 122.603 128.765 122.56L135.898 120.622C136.257 120.502 136.585 120.306 136.861 120.048C137.138 119.79 137.355 119.475 137.498 119.124C138.523 116.217 141.6 107.249 142.625 104.342C142.748 103.978 142.687 103.701 142.492 103.562Z" fill="black"/>
<path d="M127.986 121.709L133.114 106.926C133.256 106.576 133.473 106.261 133.749 106.004C134.026 105.746 134.355 105.552 134.713 105.434L141.831 103.495C142.492 103.316 142.856 103.695 142.62 104.341C141.595 107.249 138.518 116.217 137.493 119.124C137.35 119.474 137.133 119.789 136.856 120.048C136.58 120.306 136.252 120.502 135.893 120.622L128.776 122.58C128.119 122.734 127.766 122.355 127.986 121.709Z" fill="url(#paint14_linear_282_1432)"/>
<path d="M133.939 105.844C133.569 106.124 133.282 106.5 133.108 106.931L127.981 121.709C127.922 121.826 127.898 121.958 127.91 122.088C127.923 122.219 127.972 122.343 128.053 122.447L127.417 121.903C127.326 121.803 127.268 121.677 127.25 121.542C127.233 121.407 127.257 121.27 127.319 121.15L132.447 106.367C132.609 105.965 132.872 105.612 133.211 105.341L133.939 105.844Z" fill="#858585"/>
<path d="M140.538 110.3C140.026 111.802 138.246 112.807 135.303 113.505C132.36 114.202 130.734 117.325 131.201 118.273C131.668 119.222 136.426 120.109 138.328 119.837C140.231 119.565 142.138 116.817 142.718 115.966C143.297 115.115 143.964 109.177 143.353 108.362C142.743 107.546 141.456 107.674 141.456 107.674L140.538 110.3Z" fill="#F28F8F"/>
<path d="M50.6889 48.4774C41.0577 48.4774 33.2501 43.5016 33.2501 37.3637C33.2501 31.2258 41.0577 26.25 50.6889 26.25C60.3201 26.25 68.1277 31.2258 68.1277 37.3637C68.1277 43.5016 60.3201 48.4774 50.6889 48.4774Z" fill="url(#paint15_linear_282_1432)"/>
<path d="M56.9802 42.9592C58.129 42.9555 59.2398 42.547 60.1173 41.8056C60.9948 41.0642 61.583 40.0372 61.7784 38.9051C61.9706 37.6789 61.694 36.4252 61.0037 35.3937C60.3133 34.3622 59.2598 33.6285 58.0529 33.3386C57.0625 33.1104 56.0255 33.1984 55.0877 33.5901C54.1499 33.9819 53.3584 34.6578 52.8247 35.5227L41.6288 33.213C41.1986 33.1188 40.7486 33.1903 40.3688 33.4134C39.989 33.6364 39.7074 33.9945 39.5801 34.4162C39.5215 34.6379 39.5087 34.8692 39.5425 35.0959C39.5764 35.3227 39.6561 35.5402 39.7769 35.7352C39.8976 35.9301 40.0569 36.0983 40.2449 36.2296C40.4328 36.3609 40.6456 36.4525 40.8702 36.4988L41.1601 36.5568C41.2032 36.5645 41.2439 36.582 41.2791 36.608C41.3143 36.634 41.343 36.6677 41.3631 36.7066C41.381 36.746 41.3902 36.7889 41.3902 36.8322C41.3902 36.8755 41.381 36.9183 41.3631 36.9578L41.165 37.47C41.0986 37.636 41.0922 37.82 41.1469 37.9902C41.2016 38.1605 41.3139 38.3063 41.4646 38.4026C41.5833 38.476 41.6838 38.5755 41.7583 38.6936C41.8328 38.8116 41.8794 38.9451 41.8946 39.0839C41.9088 39.2432 41.973 39.3939 42.078 39.5146C42.183 39.6352 42.3235 39.7195 42.4793 39.7556L42.7064 39.8039C42.8638 39.833 43.0264 39.8112 43.1706 39.7417C43.3148 39.6722 43.4332 39.5586 43.5085 39.4173C43.6088 39.2488 43.7592 39.1157 43.9387 39.0368C44.1182 38.9578 44.3179 38.9367 44.5099 38.9766C44.7019 39.0165 44.8767 39.1153 45.0099 39.2593C45.1431 39.4033 45.228 39.5852 45.2529 39.7797C45.2663 39.938 45.3297 40.0879 45.434 40.2078C45.5382 40.3276 45.6778 40.4112 45.8327 40.4465L46.0598 40.4949C46.2172 40.5232 46.3795 40.5011 46.5236 40.4316C46.6676 40.3622 46.786 40.2491 46.8619 40.1083C46.9343 39.9885 47.0318 39.8858 47.1478 39.8074C47.2638 39.7289 47.3954 39.6766 47.5336 39.6541C47.7194 39.6317 47.8907 39.5423 48.0152 39.4026C48.1398 39.263 48.2091 39.0826 48.2101 38.8955V38.3446C48.212 38.3015 48.2233 38.2594 48.243 38.221C48.2628 38.1827 48.2906 38.149 48.3246 38.1224C48.3585 38.0958 48.3978 38.0768 48.4397 38.0668C48.4817 38.0568 48.5253 38.056 48.5676 38.0644L52.1385 38.7988C52.2842 39.7881 52.7311 40.7085 53.4184 41.4348C54.1058 42.161 55.0002 42.6579 55.98 42.8577C56.3091 42.925 56.6442 42.959 56.9802 42.9592ZM57.9466 33.7783C59.0426 34.0343 60.0009 34.6961 60.6285 35.6303C61.2561 36.5646 61.5064 37.7019 61.3291 38.8133C61.139 39.8473 60.5852 40.7792 59.7678 41.4403C58.9504 42.1014 57.9233 42.4481 56.8725 42.4178C55.8216 42.3874 54.8163 41.982 54.0384 41.2748C53.2605 40.5676 52.7614 39.6053 52.6314 38.5621V38.3881L48.6933 37.5908C48.5803 37.5635 48.4627 37.5617 48.3489 37.5855C48.2351 37.6093 48.1281 37.6581 48.0356 37.7284C47.943 37.7988 47.8673 37.8888 47.8139 37.992C47.7605 38.0953 47.7308 38.2091 47.7269 38.3253V38.8761C47.7258 38.9417 47.7021 39.0049 47.6599 39.0551C47.6176 39.1053 47.5594 39.1393 47.4949 39.1516C47.2837 39.1818 47.0821 39.2598 46.9055 39.3795C46.7288 39.4992 46.5817 39.6576 46.4754 39.8425C46.4497 39.8947 46.4085 39.9376 46.3575 39.9653C46.3064 39.993 46.248 40.0041 46.1903 39.9972L45.968 39.9488C45.9117 39.9343 45.8615 39.9021 45.8249 39.8568C45.7884 39.8116 45.7674 39.7557 45.7651 39.6976C45.7346 39.3968 45.6093 39.1135 45.4073 38.8885C45.2052 38.6636 44.9369 38.5088 44.641 38.4464C44.3452 38.384 44.0372 38.4173 43.7615 38.5414C43.4858 38.6656 43.2568 38.8742 43.1074 39.1371C43.0827 39.1888 43.0423 39.2315 42.9921 39.2593C42.9418 39.287 42.8842 39.2983 42.8272 39.2917L42.5953 39.2434C42.5398 39.228 42.4907 39.1953 42.4551 39.1502C42.4195 39.105 42.3992 39.0496 42.3971 38.9921C42.3732 38.7799 42.3012 38.5761 42.1864 38.396C42.0717 38.216 41.9173 38.0645 41.7352 37.9532C41.6819 37.9148 41.643 37.8597 41.6246 37.7967C41.6062 37.7337 41.6094 37.6663 41.6337 37.6053L41.8318 37.0931C41.8727 36.9875 41.8902 36.8743 41.8828 36.7612C41.8755 36.6482 41.8435 36.5382 41.7892 36.4388C41.7349 36.3394 41.6596 36.253 41.5684 36.1858C41.4773 36.1185 41.3726 36.072 41.2616 36.0494L40.9669 35.9866C40.8073 35.9526 40.6563 35.8867 40.5228 35.793C40.3894 35.6993 40.2761 35.5796 40.19 35.4411C40.1038 35.3026 40.0465 35.1482 40.0214 34.987C39.9963 34.8258 40.004 34.6613 40.0439 34.5031C40.1382 34.1991 40.3441 33.9419 40.6201 33.7832C40.8962 33.6246 41.222 33.5763 41.5322 33.6479L53.0421 36.0397L53.1291 35.8899C53.5916 35.0667 54.3094 34.4163 55.1742 34.0371C56.0389 33.6579 57.0036 33.5705 57.9225 33.788L57.9466 33.7783ZM56.9802 41.1617C57.5804 41.1684 58.1697 41.0005 58.6763 40.6785C59.2755 40.2851 59.7197 39.6961 59.9332 39.0118C60.1467 38.3276 60.1162 37.5905 59.8471 36.9262C59.5779 36.2618 59.0866 35.7114 58.4571 35.3688C57.8275 35.0261 57.0986 34.9124 56.3945 35.0471C55.6905 35.1817 55.055 35.5564 54.5963 36.1072C54.1376 36.658 53.8842 37.3509 53.8792 38.0676C53.8741 38.7844 54.1179 39.4807 54.5688 40.0379C55.0198 40.595 55.65 40.9785 56.3521 41.123C56.5577 41.1603 56.7665 41.1764 56.9754 41.1714L56.9802 41.1617ZM56.9802 35.4551C57.1603 35.4561 57.3398 35.4739 57.5166 35.5082C57.8532 35.5799 58.1724 35.7172 58.456 35.9123C58.7396 36.1074 58.9819 36.3564 59.1692 36.6451C59.3566 36.9338 59.4852 37.2566 59.5478 37.5951C59.6104 37.9335 59.6057 38.281 59.534 38.6176C59.4622 38.9543 59.3249 39.2735 59.1299 39.557C58.9348 39.8406 58.6858 40.083 58.3971 40.2703C58.1083 40.4576 57.7855 40.5862 57.4471 40.6488C57.1086 40.7114 56.7612 40.7067 56.4245 40.635C55.9192 40.5298 55.4563 40.2773 55.0942 39.9094C54.7321 39.5416 54.4871 39.0747 54.3899 38.5678C54.2928 38.0608 54.3479 37.5364 54.5483 37.0607C54.7487 36.5851 55.0855 36.1793 55.5161 35.8948C55.9439 35.6103 56.4471 35.4605 56.9609 35.4647L56.9802 35.4551Z" fill="white"/>
<path opacity="0.6" d="M64.8805 54.9958C61.7155 54.9958 59.1498 53.3603 59.1498 51.3428C59.1498 49.3253 61.7155 47.6898 64.8805 47.6898C68.0456 47.6898 70.6113 49.3253 70.6113 51.3428C70.6113 53.3603 68.0456 54.9958 64.8805 54.9958Z" fill="url(#paint16_linear_282_1432)"/>
<path opacity="0.3" d="M73.9986 56.4938C72.699 56.4938 71.6454 55.8231 71.6454 54.9959C71.6454 54.1686 72.699 53.4979 73.9986 53.4979C75.2982 53.4979 76.3518 54.1686 76.3518 54.9959C76.3518 55.8231 75.2982 56.4938 73.9986 56.4938Z" fill="url(#paint17_linear_282_1432)"/>
<path d="M200.719 193.061C202.226 190.435 204.713 188.515 207.635 187.721C210.557 186.928 213.674 187.326 216.302 188.828L215.819 189.645L219.056 188.766L218.177 185.528L217.694 186.34C214.76 184.659 211.326 184.073 208.001 184.686C204.676 185.299 201.676 187.072 199.535 189.69C197.395 192.307 196.252 195.598 196.31 198.979C196.369 202.36 197.624 205.61 199.854 208.152L202.009 206.262C200.446 204.471 199.481 202.235 199.249 199.868C199.018 197.502 199.532 195.122 200.719 193.061Z" fill="black"/>
<path d="M221.497 189.495L219.322 191.336C221.061 193.385 222.022 195.981 222.035 198.668C222.048 201.355 221.114 203.961 219.395 206.027C217.677 208.093 215.285 209.486 212.641 209.962C209.996 210.439 207.268 209.967 204.937 208.63L205.42 207.814L202.168 208.732L203.048 211.969L203.531 211.153C206.449 212.813 209.859 213.392 213.162 212.789C216.465 212.186 219.45 210.44 221.593 207.856C223.737 205.272 224.902 202.015 224.884 198.658C224.867 195.301 223.667 192.057 221.497 189.495Z" fill="black"/>
<g opacity="0.6">
<path opacity="0.6" d="M200.719 193.061C202.226 190.435 204.713 188.515 207.635 187.721C210.557 186.928 213.674 187.326 216.302 188.828L215.819 189.645L219.056 188.766L218.177 185.528L217.694 186.34C214.76 184.659 211.325 184.073 208 184.686C204.675 185.299 201.676 187.072 199.535 189.69C197.395 192.307 196.252 195.598 196.31 198.979C196.368 202.36 197.624 205.61 199.854 208.152L202.009 206.262C200.445 204.471 199.481 202.235 199.249 199.868C199.018 197.502 199.532 195.122 200.719 193.061Z" fill="url(#paint18_linear_282_1432)"/>
<path opacity="0.6" d="M221.496 189.495L219.322 191.336C221.061 193.385 222.021 195.981 222.035 198.668C222.048 201.355 221.113 203.961 219.395 206.027C217.677 208.093 215.285 209.486 212.64 209.962C209.996 210.439 207.268 209.967 204.937 208.63L205.42 207.814L202.168 208.732L203.048 211.969L203.531 211.153C206.449 212.813 209.859 213.392 213.162 212.789C216.465 212.186 219.45 210.44 221.593 207.856C223.737 205.272 224.902 202.015 224.884 198.658C224.867 195.301 223.667 192.057 221.496 189.495Z" fill="url(#paint19_linear_282_1432)"/>
</g>
<path d="M208.556 185.195H205.406V175.531C205.406 173.753 204.7 172.049 203.443 170.792C202.186 169.535 200.481 168.829 198.704 168.829C196.926 168.829 195.222 169.535 193.965 170.792C192.708 172.049 192.002 173.753 192.002 175.531V185.195H188.851V175.531C188.851 172.918 189.889 170.412 191.737 168.564C193.585 166.716 196.091 165.678 198.704 165.678C201.317 165.678 203.823 166.716 205.671 168.564C207.518 170.412 208.556 172.918 208.556 175.531V185.195Z" fill="black"/>
<g opacity="0.3">
<path opacity="0.3" d="M208.556 185.195H205.406V175.531C205.406 173.753 204.7 172.049 203.443 170.792C202.186 169.535 200.481 168.829 198.704 168.829C196.926 168.829 195.222 169.535 193.965 170.792C192.708 172.049 192.002 173.753 192.002 175.531V185.195H188.851V175.531C188.851 172.918 189.889 170.412 191.737 168.564C193.585 166.716 196.091 165.678 198.704 165.678C201.317 165.678 203.823 166.716 205.671 168.564C207.518 170.412 208.556 172.918 208.556 175.531V185.195Z" fill="url(#paint20_linear_282_1432)"/>
</g>
<path d="M212.166 182.735V198.55C212.166 198.792 212.118 199.03 212.026 199.253C211.934 199.476 211.799 199.678 211.628 199.849C211.458 200.019 211.255 200.155 211.032 200.247C210.81 200.339 210.571 200.387 210.33 200.387H187.068C186.828 200.386 186.59 200.338 186.368 200.245C186.146 200.153 185.944 200.017 185.775 199.847C185.605 199.676 185.471 199.474 185.379 199.252C185.288 199.029 185.241 198.791 185.242 198.55V182.735C185.241 182.495 185.288 182.256 185.379 182.034C185.471 181.812 185.605 181.609 185.775 181.439C185.944 181.268 186.146 181.133 186.368 181.04C186.59 180.948 186.828 180.9 187.068 180.899H210.33C210.634 180.897 210.934 180.973 211.2 181.121C211.492 181.277 211.737 181.509 211.907 181.794C212.077 182.078 212.167 182.404 212.166 182.735Z" fill="url(#paint21_linear_282_1432)"/>
<path opacity="0.2" d="M211.2 181.121V196.618C211.2 196.859 211.152 197.097 211.06 197.32C210.967 197.542 210.832 197.744 210.661 197.914C210.491 198.084 210.288 198.219 210.066 198.311C209.843 198.403 209.604 198.45 209.363 198.449H186.102C185.802 198.45 185.506 198.375 185.242 198.232V182.735C185.241 182.495 185.288 182.256 185.379 182.034C185.471 181.812 185.605 181.609 185.775 181.439C185.944 181.268 186.146 181.133 186.368 181.04C186.59 180.948 186.828 180.9 187.068 180.899H210.33C210.634 180.897 210.934 180.973 211.2 181.121Z" fill="url(#paint22_linear_282_1432)"/>
<path opacity="0.5" d="M202.168 188.659C202.16 188.029 201.979 187.412 201.646 186.877C201.312 186.342 200.839 185.907 200.277 185.621C199.715 185.335 199.086 185.207 198.457 185.252C197.828 185.297 197.223 185.513 196.707 185.877C196.192 186.24 195.786 186.737 195.532 187.315C195.278 187.892 195.187 188.528 195.268 189.153C195.35 189.779 195.6 190.37 195.992 190.864C196.385 191.358 196.905 191.735 197.496 191.955L197.336 196.168H200.105L199.694 192.037C200.415 191.814 201.044 191.365 201.49 190.757C201.935 190.149 202.173 189.413 202.168 188.659Z" fill="black"/>
</g>
<defs>
<linearGradient id="paint0_linear_282_1432" x1="205.696" y1="75.4905" x2="180.222" y2="79.3122" gradientUnits="userSpaceOnUse">
<stop stop-color="#370041"/>
<stop offset="1" stop-color="#121843"/>
</linearGradient>
<linearGradient id="paint1_linear_282_1432" x1="198.698" y1="82.2643" x2="190.431" y2="83.506" gradientUnits="userSpaceOnUse">
<stop stop-color="#98B3D6"/>
<stop offset="1" stop-color="#E2E8F0"/>
</linearGradient>
<linearGradient id="paint2_linear_282_1432" x1="201.943" y1="91.0056" x2="186.277" y2="94.11" gradientUnits="userSpaceOnUse">
<stop stop-color="#98B3D6"/>
<stop offset="1" stop-color="#E2E8F0"/>
</linearGradient>
<linearGradient id="paint3_linear_282_1432" x1="202.942" y1="130.874" x2="184.661" y2="134.597" gradientUnits="userSpaceOnUse">
<stop stop-color="#370041"/>
<stop offset="1" stop-color="#121843"/>
</linearGradient>
<linearGradient id="paint4_linear_282_1432" x1="149.173" y1="28" x2="132.813" y2="30.2226" gradientUnits="userSpaceOnUse">
<stop stop-color="#F22277"/>
<stop offset="1" stop-color="#580167"/>
</linearGradient>
<linearGradient id="paint5_linear_282_1432" x1="151.841" y1="52.1656" x2="140.46" y2="53.7181" gradientUnits="userSpaceOnUse">
<stop stop-color="#F22277"/>
<stop offset="1" stop-color="#580167"/>
</linearGradient>
<linearGradient id="paint6_linear_282_1432" x1="170.495" y1="42.1501" x2="155.065" y2="44.7871" gradientUnits="userSpaceOnUse">
<stop stop-color="#F22277"/>
<stop offset="1" stop-color="#580167"/>
</linearGradient>
<linearGradient id="paint7_linear_282_1432" x1="170.495" y1="42.1501" x2="155.065" y2="44.7871" gradientUnits="userSpaceOnUse">
<stop stop-color="#98B3D6"/>
<stop offset="1" stop-color="#E2E8F0"/>
</linearGradient>
<linearGradient id="paint8_linear_282_1432" x1="39.4946" y1="146.311" x2="29.5535" y2="159.494" gradientUnits="userSpaceOnUse">
<stop stop-color="#F22277"/>
<stop offset="1" stop-color="#580167"/>
</linearGradient>
<linearGradient id="paint9_linear_282_1432" x1="58.5333" y1="161.431" x2="51.6219" y2="170.607" gradientUnits="userSpaceOnUse">
<stop stop-color="#F22277"/>
<stop offset="1" stop-color="#580167"/>
</linearGradient>
<linearGradient id="paint10_linear_282_1432" x1="64.5552" y1="141.133" x2="55.5635" y2="153.947" gradientUnits="userSpaceOnUse">
<stop stop-color="#F22277"/>
<stop offset="1" stop-color="#580167"/>
</linearGradient>
<linearGradient id="paint11_linear_282_1432" x1="64.5551" y1="141.133" x2="55.5634" y2="153.947" gradientUnits="userSpaceOnUse">
<stop stop-color="#98B3D6"/>
<stop offset="1" stop-color="#E2E8F0"/>
</linearGradient>
<linearGradient id="paint12_linear_282_1432" x1="130.132" y1="75.5524" x2="93.1547" y2="80.8879" gradientUnits="userSpaceOnUse">
<stop stop-color="#F22277"/>
<stop offset="1" stop-color="#580167"/>
</linearGradient>
<linearGradient id="paint13_linear_282_1432" x1="130.132" y1="75.5524" x2="93.1547" y2="80.8879" gradientUnits="userSpaceOnUse">
<stop stop-color="#98B3D6"/>
<stop offset="1" stop-color="#E2E8F0"/>
</linearGradient>
<linearGradient id="paint14_linear_282_1432" x1="141.939" y1="103.451" x2="125.43" y2="105.916" gradientUnits="userSpaceOnUse">
<stop stop-color="#F22277"/>
<stop offset="1" stop-color="#580167"/>
</linearGradient>
<linearGradient id="paint15_linear_282_1432" x1="35.0295" y1="26.25" x2="71.5072" y2="37.3391" gradientUnits="userSpaceOnUse">
<stop stop-color="#98B3D6"/>
<stop offset="1" stop-color="#E2E8F0"/>
</linearGradient>
<linearGradient id="paint16_linear_282_1432" x1="59.7345" y1="47.6898" x2="71.7224" y2="51.3332" gradientUnits="userSpaceOnUse">
<stop stop-color="#98B3D6"/>
<stop offset="1" stop-color="#E2E8F0"/>
</linearGradient>
<linearGradient id="paint17_linear_282_1432" x1="71.8855" y1="53.4979" x2="76.8069" y2="54.9957" gradientUnits="userSpaceOnUse">
<stop stop-color="#98B3D6"/>
<stop offset="1" stop-color="#E2E8F0"/>
</linearGradient>
<linearGradient id="paint18_linear_282_1432" x1="217.896" y1="184.449" x2="192.774" y2="189.12" gradientUnits="userSpaceOnUse">
<stop stop-color="#98B3D6"/>
<stop offset="1" stop-color="#E2E8F0"/>
</linearGradient>
<linearGradient id="paint19_linear_282_1432" x1="223.725" y1="189.495" x2="198.649" y2="194.186" gradientUnits="userSpaceOnUse">
<stop stop-color="#98B3D6"/>
<stop offset="1" stop-color="#E2E8F0"/>
</linearGradient>
<linearGradient id="paint20_linear_282_1432" x1="207.551" y1="165.678" x2="185.867" y2="169.92" gradientUnits="userSpaceOnUse">
<stop stop-color="#98B3D6"/>
<stop offset="1" stop-color="#E2E8F0"/>
</linearGradient>
<linearGradient id="paint21_linear_282_1432" x1="210.792" y1="180.899" x2="182.087" y2="188.582" gradientUnits="userSpaceOnUse">
<stop stop-color="#98B3D6"/>
<stop offset="1" stop-color="#E2E8F0"/>
</linearGradient>
<linearGradient id="paint22_linear_282_1432" x1="209.875" y1="180.899" x2="182.468" y2="188.752" gradientUnits="userSpaceOnUse">
<stop stop-color="#98B3D6"/>
<stop offset="1" stop-color="#E2E8F0"/>
</linearGradient>
<clipPath id="clip0_282_1432">
<rect width="280" height="280" fill="white"/>
</clipPath>
</defs>
</svg>
