<?xml version="1.0" encoding="UTF-8" standalone="no" ?>
<!DOCTYPE svg PUBLIC "-//W3C//DTD SVG 1.1//EN" "http://www.w3.org/Graphics/SVG/1.1/DTD/svg11.dtd">
<svg xmlns="http://www.w3.org/2000/svg" xmlns:xlink="http://www.w3.org/1999/xlink" version="1.1" width="28" height="30" viewBox="0 0 28 30" xml:space="preserve">
<desc>Created with Fabric.js 4.6.0</desc>
<defs>
</defs>
<g transform="matrix(1 0 0 1 14 15)" id="-as6DoITlfxk0Wfw3XsXU"  >
<path style="stroke: none; stroke-width: 1; stroke-dasharray: none; stroke-linecap: butt; stroke-dashoffset: 0; stroke-linejoin: miter; stroke-miterlimit: 4; fill: rgb(105,155,247); fill-rule: nonzero; opacity: 1;" vector-effect="non-scaling-stroke"  transform=" translate(-14, -15)" d="M 13.9999 30 C 13.7513 30 13.5128 29.9012 13.337 29.7254 C 13.1612 29.5496 13.0624 29.3111 13.0624 29.0625 L 13.0624 26.6381 L 11.8512 27.8512 C 11.6751 28.027 11.4365 28.1257 11.1877 28.1255 C 10.9389 28.1253 10.7004 28.0264 10.5246 27.8503 C 10.3488 27.6743 10.2502 27.4356 10.2503 27.1868 C 10.2505 26.9381 10.3495 26.6995 10.5255 26.5238 L 13.0624 23.9869 L 13.0624 16.6238 L 6.68742 20.3044 L 5.75742 23.7731 C 5.69277 24.0133 5.53536 24.218 5.31981 24.3421 C 5.10426 24.4662 4.84823 24.4996 4.60804 24.435 C 4.36785 24.3704 4.16319 24.2129 4.03906 23.9974 C 3.91494 23.7818 3.88152 23.5258 3.94617 23.2856 L 4.39054 21.6319 L 2.29054 22.8431 C 2.07533 22.9655 1.82046 22.9978 1.58154 22.9329 C 1.34263 22.868 1.13907 22.7113 1.01528 22.4969 C 0.8915 22.2825 0.857541 22.0279 0.920819 21.7885 C 0.984097 21.5492 1.13947 21.3446 1.35304 21.2194 L 3.45304 20.0081 L 1.79554 19.5637 C 1.67661 19.5317 1.56515 19.4766 1.46753 19.4015 C 1.3699 19.3264 1.28802 19.2329 1.22656 19.1261 C 1.1651 19.0194 1.12526 18.9016 1.10932 18.7795 C 1.09339 18.6574 1.10166 18.5333 1.13367 18.4144 C 1.16568 18.2954 1.2208 18.184 1.29588 18.0864 C 1.37097 17.9887 1.46455 17.9069 1.57128 17.8454 C 1.678 17.7839 1.79579 17.7441 1.91792 17.7282 C 2.04004 17.7122 2.16411 17.7205 2.28304 17.7525 L 5.74804 18.6806 L 12.1249 15 L 5.74992 11.3194 L 2.28117 12.2475 C 2.04254 12.307 1.79011 12.2703 1.57827 12.1454 C 1.36643 12.0205 1.21215 11.8173 1.1487 11.5797 C 1.08524 11.3421 1.11768 11.0891 1.23903 10.8752 C 1.36038 10.6613 1.56092 10.5037 1.79742 10.4362 L 3.45304 9.99187 L 1.35304 8.78063 C 1.24556 8.71952 1.15123 8.63775 1.07548 8.54004 C 0.999727 8.44232 0.944052 8.33059 0.911658 8.21127 C 0.879263 8.09196 0.87079 7.96741 0.886727 7.8448 C 0.902663 7.7222 0.942693 7.60395 1.00451 7.49688 C 1.06633 7.38981 1.14872 7.29602 1.24694 7.22092 C 1.34515 7.14582 1.45725 7.09088 1.57678 7.05928 C 1.69631 7.02768 1.82091 7.02003 1.94341 7.03678 C 2.06591 7.05353 2.18388 7.09435 2.29054 7.15687 L 4.39054 8.36812 L 3.94617 6.7125 C 3.91205 6.59283 3.9021 6.46757 3.91689 6.34402 C 3.93168 6.22047 3.97092 6.1011 4.03233 5.99287 C 4.09373 5.88464 4.17606 5.78971 4.27452 5.71363 C 4.37299 5.63755 4.48561 5.58183 4.60583 5.54972 C 4.72606 5.51761 4.85146 5.50975 4.97475 5.52661 C 5.09804 5.54347 5.21674 5.5847 5.32393 5.64791 C 5.43111 5.71111 5.52465 5.79502 5.59907 5.89474 C 5.6735 5.99447 5.72732 6.10801 5.75742 6.22875 L 6.68554 9.69563 L 13.0624 13.3762 L 13.0624 6.01312 L 10.5255 3.47625 C 10.4384 3.38921 10.3692 3.28585 10.322 3.17208 C 10.2748 3.05831 10.2504 2.93635 10.2503 2.81316 C 10.2502 2.68998 10.2744 2.56799 10.3215 2.45415 C 10.3685 2.34031 10.4376 2.23685 10.5246 2.14969 C 10.6116 2.06252 10.715 1.99336 10.8288 1.94613 C 10.9425 1.89891 11.0645 1.87457 11.1877 1.87448 C 11.3109 1.87439 11.4329 1.89857 11.5467 1.94563 C 11.6605 1.99269 11.764 2.06171 11.8512 2.14875 L 13.0624 3.36188 L 13.0624 0.9375 C 13.0624 0.68886 13.1612 0.450403 13.337 0.274587 C 13.5128 0.0987721 13.7513 0 13.9999 0 C 14.2486 0 14.487 0.0987721 14.6628 0.274587 C 14.8386 0.450403 14.9374 0.68886 14.9374 0.9375 L 14.9374 3.36188 L 16.1505 2.14875 C 16.3266 1.97296 16.5652 1.8743 16.814 1.87448 C 17.0628 1.87465 17.3013 1.97365 17.4771 2.14969 C 17.6529 2.32572 17.7516 2.56438 17.7514 2.81316 C 17.7512 3.06194 17.6522 3.30046 17.4762 3.47625 L 14.9374 6.01312 L 14.9374 13.3762 L 21.3124 9.69563 L 22.2424 6.22688 C 22.3071 5.98669 22.4645 5.78202 22.68 5.65789 C 22.8956 5.53377 23.1516 5.50035 23.3918 5.565 C 23.632 5.62965 23.8366 5.78706 23.9608 6.00261 C 24.0849 6.21816 24.1183 6.47419 24.0537 6.71438 L 23.6112 8.36812 L 25.7112 7.15687 C 25.9264 7.03452 26.1812 7.00225 26.4202 7.06711 C 26.6591 7.13197 26.8626 7.2887 26.9864 7.5031 C 27.1102 7.71749 27.1442 7.97215 27.0809 8.21149 C 27.0176 8.45083 26.8622 8.65542 26.6487 8.78063 L 24.5487 9.99187 L 26.2043 10.4362 C 26.4445 10.5009 26.6491 10.6583 26.7733 10.8739 C 26.8974 11.0894 26.9308 11.3454 26.8662 11.5856 C 26.8015 11.8258 26.6441 12.0305 26.4286 12.1546 C 26.213 12.2787 25.957 12.3121 25.7168 12.2475 L 22.2518 11.3194 L 15.8749 15 L 22.2499 18.6806 L 25.7168 17.7525 C 25.957 17.6881 26.2129 17.7218 26.4283 17.8461 C 26.6437 17.9704 26.8008 18.1751 26.8652 18.4153 C 26.9296 18.6555 26.896 18.9114 26.7717 19.1268 C 26.6474 19.3422 26.4426 19.4994 26.2024 19.5637 L 24.5468 20.0081 L 26.6468 21.2194 C 26.8604 21.3446 27.0157 21.5492 27.079 21.7885 C 27.1423 22.0279 27.1083 22.2825 26.9845 22.4969 C 26.8608 22.7113 26.6572 22.868 26.4183 22.9329 C 26.1794 22.9978 25.9245 22.9655 25.7093 22.8431 L 23.6093 21.6319 L 24.0518 23.2875 C 24.0859 23.4072 24.0959 23.5324 24.0811 23.656 C 24.0663 23.7795 24.027 23.8989 23.9656 24.0071 C 23.9042 24.1154 23.8219 24.2103 23.7234 24.2864 C 23.625 24.3625 23.5123 24.4182 23.3921 24.4503 C 23.2719 24.4824 23.1465 24.4902 23.0232 24.4734 C 22.8999 24.4565 22.7812 24.4153 22.674 24.3521 C 22.5668 24.2889 22.4733 24.205 22.3989 24.1053 C 22.3245 24.0055 22.2706 23.892 22.2405 23.7713 L 21.3124 20.3044 L 14.9374 16.6238 L 14.9374 23.9869 L 17.4743 26.5238 C 17.6503 26.6995 17.7493 26.9381 17.7495 27.1868 C 17.7497 27.4356 17.651 27.6743 17.4752 27.8503 C 17.2994 28.0264 17.0609 28.1253 16.8121 28.1255 C 16.5634 28.1257 16.3247 28.027 16.1487 27.8512 L 14.9355 26.6381 L 14.9355 29.0625 C 14.9355 29.3111 14.8368 29.5496 14.661 29.7254 C 14.4851 29.9012 14.2467 30 13.998 30 L 13.9999 30 Z" stroke-linecap="round" />
</g>
</svg>