<?xml version="1.0" encoding="UTF-8" standalone="no" ?>
<!DOCTYPE svg PUBLIC "-//W3C//DTD SVG 1.1//EN" "http://www.w3.org/Graphics/SVG/1.1/DTD/svg11.dtd">
<svg xmlns="http://www.w3.org/2000/svg" xmlns:xlink="http://www.w3.org/1999/xlink" version="1.1" width="48" height="48" viewBox="0 0 48 48" xml:space="preserve">
<desc>Created with Fabric.js 4.6.0</desc>
<defs>
</defs>
<g transform="matrix(1.59 0 0 1 24 24)" id="oBS3DwWqIliXDkQVTdk-h"  >
<path style="stroke: none; stroke-width: 1; stroke-dasharray: none; stroke-linecap: butt; stroke-dashoffset: 0; stroke-linejoin: miter; stroke-miterlimit: 4; fill: rgb(0,0,0); fill-rule: nonzero; opacity: 1;" vector-effect="non-scaling-stroke"  transform=" translate(-24, -24)" d="M 22.5 44 Q 21.85 44 21.425 43.575 Q 21 43.15 21 42.5 L 21 30 L 18.5 30 Q 17.85 30 17.425 29.575 Q 17 29.15 17 28.5 L 17 17.35 Q 17 16.1 17.875 15.225 Q 18.75 14.35 20 14.35 L 28 14.35 Q 29.25 14.35 30.125 15.225 Q 31 16.1 31 17.35 L 31 28.5 Q 31 29.15 30.575 29.575 Q 30.15 30 29.5 30 L 27 30 L 27 42.5 Q 27 43.15 26.575 43.575 Q 26.15 44 25.5 44 Z M 24 11.3 Q 22.5 11.3 21.425 10.225 Q 20.35 9.15 20.35 7.65 Q 20.35 6.15 21.425 5.075 Q 22.5 4 24 4 Q 25.5 4 26.575 5.075 Q 27.65 6.15 27.65 7.65 Q 27.65 9.15 26.575 10.225 Q 25.5 11.3 24 11.3 Z" stroke-linecap="round" />
</g>
</svg>